<svg width="23" height="23" viewBox="0 0 23 23" fill="none" xmlns="http://www.w3.org/2000/svg">
<circle cx="11.2079" cy="11.2079" r="11.2079" fill="#E5E5E5"/>
<path d="M10.768 9.28898H12.112L10.642 16.709H9.29795L10.768 9.28898ZM11.832 7.86098C11.5893 7.86098 11.3886 7.78165 11.23 7.62298C11.0713 7.46432 10.992 7.27298 10.992 7.04898C10.992 6.78765 11.0806 6.56832 11.258 6.39098C11.4446 6.20432 11.678 6.11098 11.958 6.11098C12.2006 6.11098 12.4013 6.19032 12.56 6.34898C12.728 6.49832 12.812 6.68032 12.812 6.89498C12.812 7.18432 12.7186 7.41765 12.532 7.59498C12.3546 7.77232 12.1213 7.86098 11.832 7.86098Z" fill="black"/>
</svg>
