<svg width="530" height="277" viewBox="0 0 530 277" fill="none" xmlns="http://www.w3.org/2000/svg">
<rect width="529.933" height="276.506" rx="10" fill="#BFC9FF"/>
<path d="M124.803 92.8448C123.027 94.9568 120.891 96.5408 118.395 97.5968C115.899 98.7008 113.139 99.2528 110.115 99.2528C107.091 99.2528 104.379 98.8688 101.979 98.1008C99.5792 97.3808 97.1792 96.1328 94.7792 94.3568C92.3792 92.6288 89.6432 90.1568 86.5712 86.9408C82.3472 86.0768 78.6272 84.4448 75.4112 82.0448C72.1952 79.5968 69.6752 76.5968 67.8512 73.0448C66.0752 69.4928 65.1872 65.5808 65.1872 61.3088C65.1872 56.2688 66.4112 51.7568 68.8592 47.7728C71.3072 43.7408 74.6912 40.5968 79.0112 38.3408C83.3312 36.0848 88.2032 34.9568 93.6272 34.9568C99.0512 34.9568 103.923 36.0848 108.243 38.3408C112.563 40.5968 115.947 43.7408 118.395 47.7728C120.843 51.7568 122.067 56.2688 122.067 61.3088C122.067 66.8288 120.603 71.7248 117.675 75.9968C114.747 80.2208 110.787 83.3408 105.795 85.3568C106.515 86.1248 107.235 86.6528 107.955 86.9408C108.723 87.2768 109.563 87.4448 110.475 87.4448C112.971 87.4448 115.299 86.3648 117.459 84.2048L124.803 92.8448ZM93.6272 48.7088C91.5152 48.7088 89.5952 49.2368 87.8672 50.2928C86.1872 51.3008 84.8432 52.7648 83.8352 54.6848C82.8272 56.5568 82.3232 58.7648 82.3232 61.3088C82.3232 63.8528 82.8272 66.0848 83.8352 68.0048C84.8432 69.8768 86.1872 71.3408 87.8672 72.3968C89.5952 73.4048 91.5152 73.9088 93.6272 73.9088C95.7392 73.9088 97.6352 73.4048 99.3152 72.3968C101.043 71.3408 102.411 69.8768 103.419 68.0048C104.427 66.0848 104.931 63.8528 104.931 61.3088C104.931 58.7648 104.427 56.5568 103.419 54.6848C102.411 52.7648 101.043 51.3008 99.3152 50.2928C97.6352 49.2368 95.7392 48.7088 93.6272 48.7088ZM152.354 87.6608C144.626 87.6608 138.602 85.5728 134.282 81.3968C129.962 77.2208 127.802 71.3648 127.802 63.8288V36.1088H144.794V63.3248C144.794 67.0208 145.442 69.7088 146.738 71.3888C148.082 73.0688 150.002 73.9088 152.498 73.9088C154.994 73.9088 156.89 73.0688 158.186 71.3888C159.53 69.7088 160.202 67.0208 160.202 63.3248V36.1088H176.906V63.8288C176.906 71.3648 174.746 77.2208 170.426 81.3968C166.106 85.5728 160.082 87.6608 152.354 87.6608ZM226.599 73.6928V86.5088H184.695V36.1088H225.663V48.9248H201.399V54.8288H222.711V67.0688H201.399V73.6928H226.599ZM251.933 87.6608C247.757 87.6608 243.677 87.2048 239.693 86.2928C235.757 85.3328 232.517 84.0608 229.973 82.4768L235.445 70.0928C237.845 71.4848 240.533 72.6128 243.509 73.4768C246.485 74.2928 249.341 74.7008 252.077 74.7008C254.429 74.7008 256.109 74.4848 257.117 74.0528C258.125 73.5728 258.629 72.8768 258.629 71.9648C258.629 70.9088 257.957 70.1168 256.613 69.5888C255.317 69.0608 253.157 68.4848 250.133 67.8608C246.245 67.0448 243.005 66.1808 240.413 65.2688C237.821 64.3088 235.565 62.7728 233.645 60.6608C231.725 58.5008 230.765 55.5968 230.765 51.9488C230.765 48.7808 231.653 45.9008 233.429 43.3088C235.205 40.7168 237.845 38.6768 241.349 37.1888C244.901 35.7008 249.197 34.9568 254.237 34.9568C257.693 34.9568 261.077 35.3408 264.389 36.1088C267.749 36.8288 270.701 37.9088 273.245 39.3488L268.133 51.6608C263.189 49.1648 258.509 47.9168 254.093 47.9168C249.725 47.9168 247.541 48.9728 247.541 51.0848C247.541 52.0928 248.189 52.8608 249.485 53.3888C250.781 53.8688 252.917 54.3968 255.893 54.9728C259.733 55.6928 262.973 56.5328 265.613 57.4928C268.253 58.4048 270.533 59.9168 272.453 62.0288C274.421 64.1408 275.405 67.0208 275.405 70.6688C275.405 73.8368 274.517 76.7168 272.741 79.3088C270.965 81.8528 268.301 83.8928 264.749 85.4288C261.245 86.9168 256.973 87.6608 251.933 87.6608ZM290.702 49.2848H275.942V36.1088H322.454V49.2848H307.694V86.5088H290.702V49.2848ZM326.867 36.1088H343.859V86.5088H326.867V36.1088ZM378.463 87.6608C373.039 87.6608 368.167 86.5328 363.847 84.2768C359.527 82.0208 356.143 78.9008 353.695 74.9168C351.247 70.8848 350.023 66.3488 350.023 61.3088C350.023 56.2688 351.247 51.7568 353.695 47.7728C356.143 43.7408 359.527 40.5968 363.847 38.3408C368.167 36.0848 373.039 34.9568 378.463 34.9568C383.887 34.9568 388.759 36.0848 393.079 38.3408C397.399 40.5968 400.783 43.7408 403.231 47.7728C405.679 51.7568 406.903 56.2688 406.903 61.3088C406.903 66.3488 405.679 70.8848 403.231 74.9168C400.783 78.9008 397.399 82.0208 393.079 84.2768C388.759 86.5328 383.887 87.6608 378.463 87.6608ZM378.463 73.9088C380.575 73.9088 382.471 73.4048 384.151 72.3968C385.879 71.3408 387.247 69.8768 388.255 68.0048C389.263 66.0848 389.767 63.8528 389.767 61.3088C389.767 58.7648 389.263 56.5568 388.255 54.6848C387.247 52.7648 385.879 51.3008 384.151 50.2928C382.471 49.2368 380.575 48.7088 378.463 48.7088C376.351 48.7088 374.431 49.2368 372.703 50.2928C371.023 51.3008 369.679 52.7648 368.671 54.6848C367.663 56.5568 367.159 58.7648 367.159 61.3088C367.159 63.8528 367.663 66.0848 368.671 68.0048C369.679 69.8768 371.023 71.3408 372.703 72.3968C374.431 73.4048 376.351 73.9088 378.463 73.9088ZM462.75 36.1088V86.5088H448.782L429.63 63.6128V86.5088H413.07V36.1088H427.038L446.19 59.0048V36.1088H462.75Z" fill="#45537C"/>
<path d="M68.2248 169.4H73.3188C74.5788 169.4 75.6708 169.616 76.5948 170.048C77.5188 170.468 78.2208 171.068 78.7008 171.848C79.1928 172.628 79.4388 173.546 79.4388 174.602C79.4388 176.078 79.1088 177.374 78.4488 178.49C77.8008 179.606 76.8828 180.47 75.6948 181.082C74.5068 181.694 73.1388 182 71.5908 182H65.7048L68.2248 169.4ZM71.6628 180.02C72.7668 180.02 73.7268 179.792 74.5428 179.336C75.3588 178.88 75.9828 178.256 76.4148 177.464C76.8588 176.66 77.0808 175.754 77.0808 174.746C77.0808 173.69 76.7388 172.868 76.0548 172.28C75.3708 171.68 74.3748 171.38 73.0668 171.38H70.1688L68.4408 180.02H71.6628ZM85.1119 182.126C84.1759 182.126 83.3539 181.952 82.6459 181.604C81.9499 181.244 81.4099 180.746 81.0259 180.11C80.6419 179.474 80.4499 178.736 80.4499 177.896C80.4499 176.828 80.6899 175.868 81.1699 175.016C81.6619 174.164 82.3399 173.498 83.2039 173.018C84.0799 172.526 85.0639 172.28 86.1559 172.28C87.0919 172.28 87.9139 172.454 88.6219 172.802C89.3299 173.15 89.8759 173.642 90.2599 174.278C90.6439 174.914 90.8359 175.652 90.8359 176.492C90.8359 177.56 90.5899 178.52 90.0979 179.372C89.6059 180.224 88.9219 180.896 88.0459 181.388C87.1819 181.88 86.2039 182.126 85.1119 182.126ZM85.2559 180.2C85.8919 180.2 86.4559 180.05 86.9479 179.75C87.4519 179.438 87.8479 179.012 88.1359 178.472C88.4239 177.92 88.5679 177.296 88.5679 176.6C88.5679 175.844 88.3459 175.256 87.9019 174.836C87.4579 174.404 86.8339 174.188 86.0299 174.188C85.3939 174.188 84.8239 174.344 84.3199 174.656C83.8279 174.956 83.4379 175.382 83.1499 175.934C82.8619 176.474 82.7179 177.092 82.7179 177.788C82.7179 178.544 82.9399 179.138 83.3839 179.57C83.8279 179.99 84.4519 180.2 85.2559 180.2ZM107.862 172.388L101.238 182.846C100.578 183.89 99.9481 184.61 99.3481 185.006C98.7601 185.414 98.0401 185.618 97.1881 185.618C96.7081 185.618 96.2341 185.54 95.7661 185.384C95.2981 185.228 94.9321 185.024 94.6681 184.772L95.7841 183.134C96.2281 183.542 96.7561 183.746 97.3681 183.746C97.7521 183.746 98.0881 183.644 98.3761 183.44C98.6641 183.248 98.9581 182.912 99.2581 182.432L99.5641 181.964L97.2961 172.388H99.5461L101.166 179.516L105.612 172.388H107.862ZM111.831 182.126C110.895 182.126 110.073 181.952 109.365 181.604C108.669 181.244 108.129 180.746 107.745 180.11C107.361 179.474 107.169 178.736 107.169 177.896C107.169 176.828 107.409 175.868 107.889 175.016C108.381 174.164 109.059 173.498 109.923 173.018C110.799 172.526 111.783 172.28 112.875 172.28C113.811 172.28 114.633 172.454 115.341 172.802C116.049 173.15 116.595 173.642 116.979 174.278C117.363 174.914 117.555 175.652 117.555 176.492C117.555 177.56 117.309 178.52 116.817 179.372C116.325 180.224 115.641 180.896 114.765 181.388C113.901 181.88 112.923 182.126 111.831 182.126ZM111.975 180.2C112.611 180.2 113.175 180.05 113.667 179.75C114.171 179.438 114.567 179.012 114.855 178.472C115.143 177.92 115.287 177.296 115.287 176.6C115.287 175.844 115.065 175.256 114.621 174.836C114.177 174.404 113.553 174.188 112.749 174.188C112.113 174.188 111.543 174.344 111.039 174.656C110.547 174.956 110.157 175.382 109.869 175.934C109.581 176.474 109.437 177.092 109.437 177.788C109.437 178.544 109.659 179.138 110.103 179.57C110.547 179.99 111.171 180.2 111.975 180.2ZM129.912 172.388L127.986 182H125.844L126.06 180.938C125.196 181.73 124.11 182.126 122.802 182.126C121.746 182.126 120.9 181.844 120.264 181.28C119.64 180.704 119.328 179.9 119.328 178.868C119.328 178.484 119.37 178.1 119.454 177.716L120.516 172.388H122.766L121.704 177.662C121.656 177.902 121.632 178.148 121.632 178.4C121.632 178.964 121.788 179.396 122.1 179.696C122.424 179.996 122.904 180.146 123.54 180.146C124.356 180.146 125.034 179.918 125.574 179.462C126.114 178.994 126.474 178.298 126.654 177.374L127.662 172.388H129.912ZM152.935 172.388L147.571 182H145.357L144.061 175.376L140.299 182H138.121L136.357 172.388H138.409L139.633 179.462L143.647 172.388H145.573L146.851 179.462L150.811 172.388H152.935ZM154.409 172.388H156.659L154.751 182H152.501L154.409 172.388ZM156.047 170.804C155.651 170.804 155.327 170.684 155.075 170.444C154.823 170.192 154.697 169.892 154.697 169.544C154.697 169.136 154.835 168.794 155.111 168.518C155.399 168.242 155.771 168.104 156.227 168.104C156.623 168.104 156.947 168.224 157.199 168.464C157.451 168.692 157.577 168.974 157.577 169.31C157.577 169.754 157.433 170.114 157.145 170.39C156.869 170.666 156.503 170.804 156.047 170.804ZM160.98 182.126C160.164 182.126 159.384 182.03 158.64 181.838C157.908 181.634 157.338 181.382 156.93 181.082L157.866 179.354C158.262 179.642 158.76 179.87 159.36 180.038C159.96 180.206 160.578 180.29 161.214 180.29C161.934 180.29 162.474 180.194 162.834 180.002C163.206 179.798 163.392 179.51 163.392 179.138C163.392 178.85 163.236 178.64 162.924 178.508C162.624 178.376 162.144 178.238 161.484 178.094C160.8 177.962 160.236 177.824 159.792 177.68C159.36 177.524 158.982 177.278 158.658 176.942C158.346 176.594 158.19 176.12 158.19 175.52C158.19 174.524 158.604 173.738 159.432 173.162C160.272 172.574 161.382 172.28 162.762 172.28C163.422 172.28 164.064 172.358 164.688 172.514C165.312 172.658 165.822 172.856 166.218 173.108L165.39 174.836C164.994 174.584 164.544 174.398 164.04 174.278C163.548 174.158 163.05 174.098 162.546 174.098C161.838 174.098 161.298 174.206 160.926 174.422C160.566 174.638 160.386 174.92 160.386 175.268C160.386 175.58 160.542 175.808 160.854 175.952C161.178 176.084 161.676 176.222 162.348 176.366C163.02 176.498 163.572 176.642 164.004 176.798C164.436 176.942 164.808 177.182 165.12 177.518C165.432 177.854 165.588 178.31 165.588 178.886C165.588 179.918 165.168 180.716 164.328 181.28C163.488 181.844 162.372 182.126 160.98 182.126ZM174.113 172.28C175.193 172.28 176.045 172.562 176.669 173.126C177.305 173.69 177.623 174.494 177.623 175.538C177.623 175.826 177.581 176.204 177.497 176.672L176.435 182H174.185L175.229 176.726C175.277 176.486 175.301 176.24 175.301 175.988C175.301 174.824 174.659 174.242 173.375 174.242C172.547 174.242 171.863 174.476 171.323 174.944C170.783 175.4 170.417 176.09 170.225 177.014L169.217 182H166.967L169.631 168.644H171.881L170.945 173.342C171.773 172.634 172.829 172.28 174.113 172.28ZM187.432 178.778C187.408 178.97 187.396 179.108 187.396 179.192C187.396 179.912 187.774 180.272 188.53 180.272C188.998 180.272 189.418 180.146 189.79 179.894L190.186 181.55C189.574 181.934 188.8 182.126 187.864 182.126C187.036 182.126 186.37 181.898 185.866 181.442C185.362 180.986 185.11 180.356 185.11 179.552C185.11 179.288 185.134 179.036 185.182 178.796L186.1 174.26H184.534L184.894 172.46H186.46L186.892 170.264H189.142L188.692 172.46H191.284L190.924 174.26H188.332L187.432 178.778ZM196.329 182.126C195.393 182.126 194.571 181.952 193.863 181.604C193.167 181.244 192.627 180.746 192.243 180.11C191.859 179.474 191.667 178.736 191.667 177.896C191.667 176.828 191.907 175.868 192.387 175.016C192.879 174.164 193.557 173.498 194.421 173.018C195.297 172.526 196.281 172.28 197.373 172.28C198.309 172.28 199.131 172.454 199.839 172.802C200.547 173.15 201.093 173.642 201.477 174.278C201.861 174.914 202.053 175.652 202.053 176.492C202.053 177.56 201.807 178.52 201.315 179.372C200.823 180.224 200.139 180.896 199.263 181.388C198.399 181.88 197.421 182.126 196.329 182.126ZM196.473 180.2C197.109 180.2 197.673 180.05 198.165 179.75C198.669 179.438 199.065 179.012 199.353 178.472C199.641 177.92 199.785 177.296 199.785 176.6C199.785 175.844 199.563 175.256 199.119 174.836C198.675 174.404 198.051 174.188 197.247 174.188C196.611 174.188 196.041 174.344 195.537 174.656C195.045 174.956 194.655 175.382 194.367 175.934C194.079 176.474 193.935 177.092 193.935 177.788C193.935 178.544 194.157 179.138 194.601 179.57C195.045 179.99 195.669 180.2 196.473 180.2ZM219.619 172.388L217.981 180.542C217.621 182.306 216.955 183.59 215.983 184.394C215.011 185.21 213.697 185.618 212.041 185.618C210.157 185.618 208.657 185.18 207.541 184.304L208.711 182.612C209.083 182.936 209.575 183.194 210.187 183.386C210.811 183.59 211.477 183.692 212.185 183.692C213.217 183.692 214.009 183.464 214.561 183.008C215.113 182.552 215.479 181.856 215.659 180.92L215.749 180.452C214.885 181.196 213.835 181.568 212.599 181.568C211.771 181.568 211.027 181.406 210.367 181.082C209.719 180.758 209.209 180.296 208.837 179.696C208.477 179.096 208.297 178.394 208.297 177.59C208.297 176.606 208.531 175.712 208.999 174.908C209.467 174.092 210.115 173.45 210.943 172.982C211.783 172.514 212.719 172.28 213.751 172.28C214.507 172.28 215.185 172.424 215.785 172.712C216.385 172.988 216.841 173.408 217.153 173.972L217.459 172.388H219.619ZM213.103 179.66C213.739 179.66 214.303 179.522 214.795 179.246C215.299 178.958 215.689 178.568 215.965 178.076C216.253 177.572 216.397 177.008 216.397 176.384C216.397 175.7 216.175 175.166 215.731 174.782C215.287 174.386 214.669 174.188 213.877 174.188C213.241 174.188 212.671 174.332 212.167 174.62C211.663 174.896 211.267 175.286 210.979 175.79C210.703 176.282 210.565 176.84 210.565 177.464C210.565 178.136 210.787 178.67 211.231 179.066C211.687 179.462 212.311 179.66 213.103 179.66ZM222.559 172.388H224.809L222.901 182H220.651L222.559 172.388ZM224.197 170.804C223.801 170.804 223.477 170.684 223.225 170.444C222.973 170.192 222.847 169.892 222.847 169.544C222.847 169.136 222.985 168.794 223.261 168.518C223.549 168.242 223.921 168.104 224.377 168.104C224.773 168.104 225.097 168.224 225.349 168.464C225.601 168.692 225.727 168.974 225.727 169.31C225.727 169.754 225.583 170.114 225.295 170.39C225.019 170.666 224.653 170.804 224.197 170.804ZM236.78 172.388L230.75 182H228.428L226.214 172.388H228.428L230.03 179.534L234.512 172.388H236.78ZM246.059 176.492C246.059 176.96 246.011 177.416 245.915 177.86H238.283C238.319 179.432 239.243 180.218 241.055 180.218C241.607 180.218 242.123 180.134 242.603 179.966C243.083 179.786 243.491 179.54 243.827 179.228L244.763 180.794C244.271 181.238 243.677 181.574 242.981 181.802C242.297 182.018 241.577 182.126 240.821 182.126C239.861 182.126 239.021 181.952 238.301 181.604C237.593 181.256 237.047 180.764 236.663 180.128C236.279 179.48 236.087 178.736 236.087 177.896C236.087 176.828 236.321 175.868 236.789 175.016C237.269 174.152 237.929 173.48 238.769 173C239.621 172.52 240.575 172.28 241.631 172.28C242.975 172.28 244.049 172.658 244.853 173.414C245.657 174.158 246.059 175.184 246.059 176.492ZM241.523 174.08C240.767 174.08 240.119 174.284 239.579 174.692C239.051 175.1 238.685 175.658 238.481 176.366H243.989C244.001 175.646 243.779 175.088 243.323 174.692C242.879 174.284 242.279 174.08 241.523 174.08ZM263.042 172.388L256.418 182.846C255.758 183.89 255.128 184.61 254.528 185.006C253.94 185.414 253.22 185.618 252.368 185.618C251.888 185.618 251.414 185.54 250.946 185.384C250.478 185.228 250.112 185.024 249.848 184.772L250.964 183.134C251.408 183.542 251.936 183.746 252.548 183.746C252.932 183.746 253.268 183.644 253.556 183.44C253.844 183.248 254.138 182.912 254.438 182.432L254.744 181.964L252.476 172.388H254.726L256.346 179.516L260.792 172.388H263.042ZM267.01 182.126C266.074 182.126 265.252 181.952 264.544 181.604C263.848 181.244 263.308 180.746 262.924 180.11C262.54 179.474 262.348 178.736 262.348 177.896C262.348 176.828 262.588 175.868 263.068 175.016C263.56 174.164 264.238 173.498 265.102 173.018C265.978 172.526 266.962 172.28 268.054 172.28C268.99 172.28 269.812 172.454 270.52 172.802C271.228 173.15 271.774 173.642 272.158 174.278C272.542 174.914 272.734 175.652 272.734 176.492C272.734 177.56 272.488 178.52 271.996 179.372C271.504 180.224 270.82 180.896 269.944 181.388C269.08 181.88 268.102 182.126 267.01 182.126ZM267.154 180.2C267.79 180.2 268.354 180.05 268.846 179.75C269.35 179.438 269.746 179.012 270.034 178.472C270.322 177.92 270.466 177.296 270.466 176.6C270.466 175.844 270.244 175.256 269.8 174.836C269.356 174.404 268.732 174.188 267.928 174.188C267.292 174.188 266.722 174.344 266.218 174.656C265.726 174.956 265.336 175.382 265.048 175.934C264.76 176.474 264.616 177.092 264.616 177.788C264.616 178.544 264.838 179.138 265.282 179.57C265.726 179.99 266.35 180.2 267.154 180.2ZM285.092 172.388L283.166 182H281.024L281.24 180.938C280.376 181.73 279.29 182.126 277.982 182.126C276.926 182.126 276.08 181.844 275.444 181.28C274.82 180.704 274.508 179.9 274.508 178.868C274.508 178.484 274.55 178.1 274.634 177.716L275.696 172.388H277.946L276.884 177.662C276.836 177.902 276.812 178.148 276.812 178.4C276.812 178.964 276.968 179.396 277.28 179.696C277.604 179.996 278.084 180.146 278.72 180.146C279.536 180.146 280.214 179.918 280.754 179.462C281.294 178.994 281.654 178.298 281.834 177.374L282.842 172.388H285.092ZM289.91 173.63C290.33 173.138 290.84 172.79 291.44 172.586C292.052 172.382 292.778 172.28 293.618 172.28L293.204 174.422C293 174.386 292.814 174.368 292.646 174.368C290.81 174.368 289.7 175.334 289.316 177.266L288.362 182H286.112L288.02 172.388H290.162L289.91 173.63ZM305.629 172.28C306.421 172.28 307.135 172.448 307.771 172.784C308.419 173.12 308.929 173.606 309.301 174.242C309.673 174.878 309.859 175.628 309.859 176.492C309.859 177.56 309.619 178.526 309.139 179.39C308.671 180.242 308.023 180.914 307.195 181.406C306.379 181.886 305.467 182.126 304.459 182.126C303.667 182.126 302.983 181.988 302.407 181.712C301.831 181.424 301.393 181.01 301.093 180.47L300.787 182H298.645L301.309 168.644H303.559L302.641 173.288C303.457 172.616 304.453 172.28 305.629 172.28ZM304.279 180.2C304.915 180.2 305.479 180.05 305.971 179.75C306.475 179.438 306.871 179.012 307.159 178.472C307.447 177.92 307.591 177.296 307.591 176.6C307.591 175.844 307.369 175.256 306.925 174.836C306.481 174.404 305.857 174.188 305.053 174.188C304.417 174.188 303.847 174.344 303.343 174.656C302.851 174.956 302.461 175.382 302.173 175.934C301.885 176.474 301.741 177.092 301.741 177.788C301.741 178.544 301.963 179.138 302.407 179.57C302.851 179.99 303.475 180.2 304.279 180.2ZM322.217 172.388L320.291 182H318.149L318.365 180.938C317.501 181.73 316.415 182.126 315.107 182.126C314.051 182.126 313.205 181.844 312.569 181.28C311.945 180.704 311.633 179.9 311.633 178.868C311.633 178.484 311.675 178.1 311.759 177.716L312.821 172.388H315.071L314.009 177.662C313.961 177.902 313.937 178.148 313.937 178.4C313.937 178.964 314.093 179.396 314.405 179.696C314.729 179.996 315.209 180.146 315.845 180.146C316.661 180.146 317.339 179.918 317.879 179.462C318.419 178.994 318.779 178.298 318.959 177.374L319.967 172.388H322.217ZM326.513 182.126C325.697 182.126 324.917 182.03 324.173 181.838C323.441 181.634 322.871 181.382 322.463 181.082L323.399 179.354C323.795 179.642 324.293 179.87 324.893 180.038C325.493 180.206 326.111 180.29 326.747 180.29C327.467 180.29 328.007 180.194 328.367 180.002C328.739 179.798 328.925 179.51 328.925 179.138C328.925 178.85 328.769 178.64 328.457 178.508C328.157 178.376 327.677 178.238 327.017 178.094C326.333 177.962 325.769 177.824 325.325 177.68C324.893 177.524 324.515 177.278 324.191 176.942C323.879 176.594 323.723 176.12 323.723 175.52C323.723 174.524 324.137 173.738 324.965 173.162C325.805 172.574 326.915 172.28 328.295 172.28C328.955 172.28 329.597 172.358 330.221 172.514C330.845 172.658 331.355 172.856 331.751 173.108L330.923 174.836C330.527 174.584 330.077 174.398 329.573 174.278C329.081 174.158 328.583 174.098 328.079 174.098C327.371 174.098 326.831 174.206 326.459 174.422C326.099 174.638 325.919 174.92 325.919 175.268C325.919 175.58 326.075 175.808 326.387 175.952C326.711 176.084 327.209 176.222 327.881 176.366C328.553 176.498 329.105 176.642 329.537 176.798C329.969 176.942 330.341 177.182 330.653 177.518C330.965 177.854 331.121 178.31 331.121 178.886C331.121 179.918 330.701 180.716 329.861 181.28C329.021 181.844 327.905 182.126 326.513 182.126ZM334.409 172.388H336.659L334.751 182H332.501L334.409 172.388ZM336.047 170.804C335.651 170.804 335.327 170.684 335.075 170.444C334.823 170.192 334.697 169.892 334.697 169.544C334.697 169.136 334.835 168.794 335.111 168.518C335.399 168.242 335.771 168.104 336.227 168.104C336.623 168.104 336.947 168.224 337.199 168.464C337.451 168.692 337.577 168.974 337.577 169.31C337.577 169.754 337.433 170.114 337.145 170.39C336.869 170.666 336.503 170.804 336.047 170.804ZM344.85 172.28C345.93 172.28 346.782 172.562 347.406 173.126C348.042 173.69 348.36 174.488 348.36 175.52C348.36 175.808 348.318 176.192 348.234 176.672L347.172 182H344.922L345.966 176.726C346.014 176.486 346.038 176.24 346.038 175.988C346.038 174.824 345.396 174.242 344.112 174.242C343.284 174.242 342.6 174.476 342.06 174.944C341.52 175.4 341.154 176.09 340.962 177.014L339.954 182H337.704L339.612 172.388H341.754L341.538 173.45C342.402 172.67 343.506 172.28 344.85 172.28ZM360.176 176.492C360.176 176.96 360.128 177.416 360.032 177.86H352.4C352.436 179.432 353.36 180.218 355.172 180.218C355.724 180.218 356.24 180.134 356.72 179.966C357.2 179.786 357.608 179.54 357.944 179.228L358.88 180.794C358.388 181.238 357.794 181.574 357.098 181.802C356.414 182.018 355.694 182.126 354.938 182.126C353.978 182.126 353.138 181.952 352.418 181.604C351.71 181.256 351.164 180.764 350.78 180.128C350.396 179.48 350.204 178.736 350.204 177.896C350.204 176.828 350.438 175.868 350.906 175.016C351.386 174.152 352.046 173.48 352.886 173C353.738 172.52 354.692 172.28 355.748 172.28C357.092 172.28 358.166 172.658 358.97 173.414C359.774 174.158 360.176 175.184 360.176 176.492ZM355.64 174.08C354.884 174.08 354.236 174.284 353.696 174.692C353.168 175.1 352.802 175.658 352.598 176.366H358.106C358.118 175.646 357.896 175.088 357.44 174.692C356.996 174.284 356.396 174.08 355.64 174.08ZM364.534 182.126C363.718 182.126 362.938 182.03 362.194 181.838C361.462 181.634 360.892 181.382 360.484 181.082L361.42 179.354C361.816 179.642 362.314 179.87 362.914 180.038C363.514 180.206 364.132 180.29 364.768 180.29C365.488 180.29 366.028 180.194 366.388 180.002C366.76 179.798 366.946 179.51 366.946 179.138C366.946 178.85 366.79 178.64 366.478 178.508C366.178 178.376 365.698 178.238 365.038 178.094C364.354 177.962 363.79 177.824 363.346 177.68C362.914 177.524 362.536 177.278 362.212 176.942C361.9 176.594 361.744 176.12 361.744 175.52C361.744 174.524 362.158 173.738 362.986 173.162C363.826 172.574 364.936 172.28 366.316 172.28C366.976 172.28 367.618 172.358 368.242 172.514C368.866 172.658 369.376 172.856 369.772 173.108L368.944 174.836C368.548 174.584 368.098 174.398 367.594 174.278C367.102 174.158 366.604 174.098 366.1 174.098C365.392 174.098 364.852 174.206 364.48 174.422C364.12 174.638 363.94 174.92 363.94 175.268C363.94 175.58 364.096 175.808 364.408 175.952C364.732 176.084 365.23 176.222 365.902 176.366C366.574 176.498 367.126 176.642 367.558 176.798C367.99 176.942 368.362 177.182 368.674 177.518C368.986 177.854 369.142 178.31 369.142 178.886C369.142 179.918 368.722 180.716 367.882 181.28C367.042 181.844 365.926 182.126 364.534 182.126ZM373.798 182.126C372.982 182.126 372.202 182.03 371.458 181.838C370.726 181.634 370.156 181.382 369.748 181.082L370.684 179.354C371.08 179.642 371.578 179.87 372.178 180.038C372.778 180.206 373.396 180.29 374.032 180.29C374.752 180.29 375.292 180.194 375.652 180.002C376.024 179.798 376.21 179.51 376.21 179.138C376.21 178.85 376.054 178.64 375.742 178.508C375.442 178.376 374.962 178.238 374.302 178.094C373.618 177.962 373.054 177.824 372.61 177.68C372.178 177.524 371.8 177.278 371.476 176.942C371.164 176.594 371.008 176.12 371.008 175.52C371.008 174.524 371.422 173.738 372.25 173.162C373.09 172.574 374.2 172.28 375.58 172.28C376.24 172.28 376.882 172.358 377.506 172.514C378.13 172.658 378.64 172.856 379.036 173.108L378.208 174.836C377.812 174.584 377.362 174.398 376.858 174.278C376.366 174.158 375.868 174.098 375.364 174.098C374.656 174.098 374.116 174.206 373.744 174.422C373.384 174.638 373.204 174.92 373.204 175.268C373.204 175.58 373.36 175.808 373.672 175.952C373.996 176.084 374.494 176.222 375.166 176.366C375.838 176.498 376.39 176.642 376.822 176.798C377.254 176.942 377.626 177.182 377.938 177.518C378.25 177.854 378.406 178.31 378.406 178.886C378.406 179.918 377.986 180.716 377.146 181.28C376.306 181.844 375.19 182.126 373.798 182.126ZM396.064 172.388L394.156 182H392.014L392.212 181.01C391.372 181.754 390.328 182.126 389.08 182.126C388.288 182.126 387.568 181.958 386.92 181.622C386.284 181.286 385.78 180.8 385.408 180.164C385.036 179.516 384.85 178.76 384.85 177.896C384.85 176.828 385.084 175.868 385.552 175.016C386.032 174.152 386.68 173.48 387.496 173C388.324 172.52 389.248 172.28 390.268 172.28C391.804 172.28 392.896 172.79 393.544 173.81L393.814 172.388H396.064ZM389.656 180.2C390.292 180.2 390.856 180.05 391.348 179.75C391.852 179.438 392.248 179.012 392.536 178.472C392.824 177.92 392.968 177.296 392.968 176.6C392.968 175.844 392.746 175.256 392.302 174.836C391.858 174.404 391.234 174.188 390.43 174.188C389.794 174.188 389.224 174.344 388.72 174.656C388.228 174.956 387.838 175.382 387.55 175.934C387.262 176.474 387.118 177.092 387.118 177.788C387.118 178.544 387.34 179.138 387.784 179.57C388.228 179.99 388.852 180.2 389.656 180.2ZM405.351 182.126C404.535 182.126 403.755 182.03 403.011 181.838C402.279 181.634 401.709 181.382 401.301 181.082L402.237 179.354C402.633 179.642 403.131 179.87 403.731 180.038C404.331 180.206 404.949 180.29 405.585 180.29C406.305 180.29 406.845 180.194 407.205 180.002C407.577 179.798 407.763 179.51 407.763 179.138C407.763 178.85 407.607 178.64 407.295 178.508C406.995 178.376 406.515 178.238 405.855 178.094C405.171 177.962 404.607 177.824 404.163 177.68C403.731 177.524 403.353 177.278 403.029 176.942C402.717 176.594 402.561 176.12 402.561 175.52C402.561 174.524 402.975 173.738 403.803 173.162C404.643 172.574 405.753 172.28 407.133 172.28C407.793 172.28 408.435 172.358 409.059 172.514C409.683 172.658 410.193 172.856 410.589 173.108L409.761 174.836C409.365 174.584 408.915 174.398 408.411 174.278C407.919 174.158 407.421 174.098 406.917 174.098C406.209 174.098 405.669 174.206 405.297 174.422C404.937 174.638 404.757 174.92 404.757 175.268C404.757 175.58 404.913 175.808 405.225 175.952C405.549 176.084 406.047 176.222 406.719 176.366C407.391 176.498 407.943 176.642 408.375 176.798C408.807 176.942 409.179 177.182 409.491 177.518C409.803 177.854 409.959 178.31 409.959 178.886C409.959 179.918 409.539 180.716 408.699 181.28C407.859 181.844 406.743 182.126 405.351 182.126ZM418.484 172.28C419.564 172.28 420.416 172.562 421.04 173.126C421.676 173.69 421.994 174.494 421.994 175.538C421.994 175.826 421.952 176.204 421.868 176.672L420.806 182H418.556L419.6 176.726C419.648 176.486 419.672 176.24 419.672 175.988C419.672 174.824 419.03 174.242 417.746 174.242C416.918 174.242 416.234 174.476 415.694 174.944C415.154 175.4 414.788 176.09 414.596 177.014L413.588 182H411.338L414.002 168.644H416.252L415.316 173.342C416.144 172.634 417.2 172.28 418.484 172.28ZM435.053 172.388L433.145 182H431.003L431.201 181.01C430.361 181.754 429.317 182.126 428.069 182.126C427.277 182.126 426.557 181.958 425.909 181.622C425.273 181.286 424.769 180.8 424.397 180.164C424.025 179.516 423.839 178.76 423.839 177.896C423.839 176.828 424.073 175.868 424.541 175.016C425.021 174.152 425.669 173.48 426.485 173C427.313 172.52 428.237 172.28 429.257 172.28C430.793 172.28 431.885 172.79 432.533 173.81L432.803 172.388H435.053ZM428.645 180.2C429.281 180.2 429.845 180.05 430.337 179.75C430.841 179.438 431.237 179.012 431.525 178.472C431.813 177.92 431.957 177.296 431.957 176.6C431.957 175.844 431.735 175.256 431.291 174.836C430.847 174.404 430.223 174.188 429.419 174.188C428.783 174.188 428.213 174.344 427.709 174.656C427.217 174.956 426.827 175.382 426.539 175.934C426.251 176.474 426.107 177.092 426.107 177.788C426.107 178.544 426.329 179.138 426.773 179.57C427.217 179.99 427.841 180.2 428.645 180.2ZM439.886 173.63C440.306 173.138 440.816 172.79 441.416 172.586C442.028 172.382 442.754 172.28 443.594 172.28L443.18 174.422C442.976 174.386 442.79 174.368 442.622 174.368C440.786 174.368 439.676 175.334 439.292 177.266L438.338 182H436.088L437.996 172.388H440.138L439.886 173.63ZM450.543 172.28C451.335 172.28 452.049 172.448 452.685 172.784C453.333 173.12 453.843 173.606 454.215 174.242C454.587 174.878 454.773 175.628 454.773 176.492C454.773 177.56 454.533 178.526 454.053 179.39C453.585 180.242 452.937 180.914 452.109 181.406C451.293 181.886 450.381 182.126 449.373 182.126C448.617 182.126 447.957 181.994 447.393 181.73C446.829 181.466 446.391 181.082 446.079 180.578L445.107 185.492H442.857L445.467 172.388H447.609L447.411 173.396C448.251 172.652 449.295 172.28 450.543 172.28ZM449.193 180.2C449.829 180.2 450.393 180.05 450.885 179.75C451.389 179.438 451.785 179.012 452.073 178.472C452.361 177.92 452.505 177.296 452.505 176.6C452.505 175.844 452.283 175.256 451.839 174.836C451.395 174.404 450.771 174.188 449.967 174.188C449.331 174.188 448.761 174.344 448.257 174.656C447.765 174.956 447.375 175.382 447.087 175.934C446.799 176.474 446.655 177.092 446.655 177.788C446.655 178.544 446.877 179.138 447.321 179.57C447.765 179.99 448.389 180.2 449.193 180.2ZM70.2948 209.126C69.3468 209.126 68.5128 208.952 67.7928 208.604C67.0848 208.244 66.5388 207.746 66.1548 207.11C65.7708 206.474 65.5788 205.736 65.5788 204.896C65.5788 203.828 65.8248 202.868 66.3168 202.016C66.8088 201.164 67.4868 200.498 68.3508 200.018C69.2268 199.526 70.2228 199.28 71.3388 199.28C72.3108 199.28 73.1448 199.472 73.8408 199.856C74.5488 200.228 75.0948 200.786 75.4788 201.53L73.5528 202.52C73.1088 201.632 72.3108 201.188 71.1588 201.188C70.5228 201.188 69.9528 201.344 69.4488 201.656C68.9568 201.956 68.5668 202.382 68.2788 202.934C67.9908 203.474 67.8468 204.092 67.8468 204.788C67.8468 205.544 68.0688 206.138 68.5128 206.57C68.9568 206.99 69.5868 207.2 70.4028 207.2C70.9548 207.2 71.4528 207.092 71.8968 206.876C72.3408 206.648 72.7188 206.312 73.0308 205.868L74.6868 206.984C74.2428 207.656 73.6308 208.184 72.8508 208.568C72.0708 208.94 71.2188 209.126 70.2948 209.126ZM80.5592 209.126C79.6232 209.126 78.8012 208.952 78.0932 208.604C77.3972 208.244 76.8572 207.746 76.4732 207.11C76.0892 206.474 75.8972 205.736 75.8972 204.896C75.8972 203.828 76.1372 202.868 76.6172 202.016C77.1092 201.164 77.7872 200.498 78.6512 200.018C79.5272 199.526 80.5112 199.28 81.6032 199.28C82.5392 199.28 83.3612 199.454 84.0692 199.802C84.7772 200.15 85.3232 200.642 85.7072 201.278C86.0912 201.914 86.2832 202.652 86.2832 203.492C86.2832 204.56 86.0372 205.52 85.5452 206.372C85.0532 207.224 84.3692 207.896 83.4932 208.388C82.6292 208.88 81.6512 209.126 80.5592 209.126ZM80.7032 207.2C81.3392 207.2 81.9032 207.05 82.3952 206.75C82.8992 206.438 83.2952 206.012 83.5832 205.472C83.8712 204.92 84.0152 204.296 84.0152 203.6C84.0152 202.844 83.7932 202.256 83.3492 201.836C82.9052 201.404 82.2812 201.188 81.4772 201.188C80.8412 201.188 80.2712 201.344 79.7672 201.656C79.2752 201.956 78.8852 202.382 78.5972 202.934C78.3092 203.474 78.1652 204.092 78.1652 204.788C78.1652 205.544 78.3872 206.138 78.8312 206.57C79.2752 206.99 79.8992 207.2 80.7032 207.2ZM101.197 199.28C102.277 199.28 103.123 199.556 103.735 200.108C104.359 200.66 104.671 201.452 104.671 202.484C104.671 202.868 104.629 203.264 104.545 203.672L103.483 209H101.233L102.295 203.726C102.343 203.486 102.367 203.234 102.367 202.97C102.367 201.818 101.755 201.242 100.531 201.242C98.9347 201.242 97.9507 202.16 97.5787 203.996L96.5707 209H94.3207L95.3827 203.726C95.4307 203.486 95.4547 203.234 95.4547 202.97C95.4547 201.818 94.8427 201.242 93.6187 201.242C92.0227 201.242 91.0387 202.166 90.6667 204.014L89.6587 209H87.4087L89.3167 199.388H91.4587L91.2607 200.432C92.0767 199.664 93.1267 199.28 94.4107 199.28C95.1067 199.28 95.7127 199.418 96.2287 199.694C96.7447 199.958 97.1347 200.348 97.3987 200.864C98.3827 199.808 99.6487 199.28 101.197 199.28ZM113.342 199.28C114.134 199.28 114.848 199.448 115.484 199.784C116.132 200.12 116.642 200.606 117.014 201.242C117.386 201.878 117.572 202.628 117.572 203.492C117.572 204.56 117.332 205.526 116.852 206.39C116.384 207.242 115.736 207.914 114.908 208.406C114.092 208.886 113.18 209.126 112.172 209.126C111.416 209.126 110.756 208.994 110.192 208.73C109.628 208.466 109.19 208.082 108.878 207.578L107.906 212.492H105.656L108.266 199.388H110.408L110.21 200.396C111.05 199.652 112.094 199.28 113.342 199.28ZM111.992 207.2C112.628 207.2 113.192 207.05 113.684 206.75C114.188 206.438 114.584 206.012 114.872 205.472C115.16 204.92 115.304 204.296 115.304 203.6C115.304 202.844 115.082 202.256 114.638 201.836C114.194 201.404 113.57 201.188 112.766 201.188C112.13 201.188 111.56 201.344 111.056 201.656C110.564 201.956 110.174 202.382 109.886 202.934C109.598 203.474 109.454 204.092 109.454 204.788C109.454 205.544 109.676 206.138 110.12 206.57C110.564 206.99 111.188 207.2 111.992 207.2ZM128.76 203.492C128.76 203.96 128.712 204.416 128.616 204.86H120.984C121.02 206.432 121.944 207.218 123.756 207.218C124.308 207.218 124.824 207.134 125.304 206.966C125.784 206.786 126.192 206.54 126.528 206.228L127.464 207.794C126.972 208.238 126.378 208.574 125.682 208.802C124.998 209.018 124.278 209.126 123.522 209.126C122.562 209.126 121.722 208.952 121.002 208.604C120.294 208.256 119.748 207.764 119.364 207.128C118.98 206.48 118.788 205.736 118.788 204.896C118.788 203.828 119.022 202.868 119.49 202.016C119.97 201.152 120.63 200.48 121.47 200C122.322 199.52 123.276 199.28 124.332 199.28C125.676 199.28 126.75 199.658 127.554 200.414C128.358 201.158 128.76 202.184 128.76 203.492ZM124.224 201.08C123.468 201.08 122.82 201.284 122.28 201.692C121.752 202.1 121.386 202.658 121.182 203.366H126.69C126.702 202.646 126.48 202.088 126.024 201.692C125.58 201.284 124.98 201.08 124.224 201.08ZM133.01 205.778C132.986 205.97 132.974 206.108 132.974 206.192C132.974 206.912 133.352 207.272 134.108 207.272C134.576 207.272 134.996 207.146 135.368 206.894L135.764 208.55C135.152 208.934 134.378 209.126 133.442 209.126C132.614 209.126 131.948 208.898 131.444 208.442C130.94 207.986 130.688 207.356 130.688 206.552C130.688 206.288 130.712 206.036 130.76 205.796L131.678 201.26H130.112L130.472 199.46H132.038L132.47 197.264H134.72L134.27 199.46H136.862L136.502 201.26H133.91L133.01 205.778ZM139.379 199.388H141.629L139.721 209H137.471L139.379 199.388ZM141.017 197.804C140.621 197.804 140.297 197.684 140.045 197.444C139.793 197.192 139.667 196.892 139.667 196.544C139.667 196.136 139.805 195.794 140.081 195.518C140.369 195.242 140.741 195.104 141.197 195.104C141.593 195.104 141.917 195.224 142.169 195.464C142.421 195.692 142.547 195.974 142.547 196.31C142.547 196.754 142.403 197.114 142.115 197.39C141.839 197.666 141.473 197.804 141.017 197.804ZM145.842 205.778C145.818 205.97 145.806 206.108 145.806 206.192C145.806 206.912 146.184 207.272 146.94 207.272C147.408 207.272 147.828 207.146 148.2 206.894L148.596 208.55C147.984 208.934 147.21 209.126 146.274 209.126C145.446 209.126 144.78 208.898 144.276 208.442C143.772 207.986 143.52 207.356 143.52 206.552C143.52 206.288 143.544 206.036 143.592 205.796L144.51 201.26H142.944L143.304 199.46H144.87L145.302 197.264H147.552L147.102 199.46H149.694L149.334 201.26H146.742L145.842 205.778ZM152.211 199.388H154.461L152.553 209H150.303L152.211 199.388ZM153.849 197.804C153.453 197.804 153.129 197.684 152.877 197.444C152.625 197.192 152.499 196.892 152.499 196.544C152.499 196.136 152.637 195.794 152.913 195.518C153.201 195.242 153.573 195.104 154.029 195.104C154.425 195.104 154.749 195.224 155.001 195.464C155.253 195.692 155.379 195.974 155.379 196.31C155.379 196.754 155.235 197.114 154.947 197.39C154.671 197.666 154.305 197.804 153.849 197.804ZM166.432 199.388L160.402 209H158.08L155.866 199.388H158.08L159.682 206.534L164.164 199.388H166.432ZM175.711 203.492C175.711 203.96 175.663 204.416 175.567 204.86H167.935C167.971 206.432 168.895 207.218 170.707 207.218C171.259 207.218 171.775 207.134 172.255 206.966C172.735 206.786 173.143 206.54 173.479 206.228L174.415 207.794C173.923 208.238 173.329 208.574 172.633 208.802C171.949 209.018 171.229 209.126 170.473 209.126C169.513 209.126 168.673 208.952 167.953 208.604C167.245 208.256 166.699 207.764 166.315 207.128C165.931 206.48 165.739 205.736 165.739 204.896C165.739 203.828 165.973 202.868 166.441 202.016C166.921 201.152 167.581 200.48 168.421 200C169.273 199.52 170.227 199.28 171.283 199.28C172.627 199.28 173.701 199.658 174.505 200.414C175.309 201.158 175.711 202.184 175.711 203.492ZM171.175 201.08C170.419 201.08 169.771 201.284 169.231 201.692C168.703 202.1 168.337 202.658 168.133 203.366H173.641C173.653 202.646 173.431 202.088 172.975 201.692C172.531 201.284 171.931 201.08 171.175 201.08ZM191.83 203.492C191.83 203.96 191.782 204.416 191.686 204.86H184.054C184.09 206.432 185.014 207.218 186.826 207.218C187.378 207.218 187.894 207.134 188.374 206.966C188.854 206.786 189.262 206.54 189.598 206.228L190.534 207.794C190.042 208.238 189.448 208.574 188.752 208.802C188.068 209.018 187.348 209.126 186.592 209.126C185.632 209.126 184.792 208.952 184.072 208.604C183.364 208.256 182.818 207.764 182.434 207.128C182.05 206.48 181.858 205.736 181.858 204.896C181.858 203.828 182.092 202.868 182.56 202.016C183.04 201.152 183.7 200.48 184.54 200C185.392 199.52 186.346 199.28 187.402 199.28C188.746 199.28 189.82 199.658 190.624 200.414C191.428 201.158 191.83 202.184 191.83 203.492ZM187.294 201.08C186.538 201.08 185.89 201.284 185.35 201.692C184.822 202.1 184.456 202.658 184.252 203.366H189.76C189.772 202.646 189.55 202.088 189.094 201.692C188.65 201.284 188.05 201.08 187.294 201.08ZM204.973 195.644L202.309 209H200.167L200.365 208.01C199.501 208.754 198.463 209.126 197.251 209.126C196.459 209.126 195.739 208.958 195.091 208.622C194.455 208.286 193.951 207.8 193.579 207.164C193.207 206.516 193.021 205.76 193.021 204.896C193.021 203.816 193.255 202.85 193.723 201.998C194.191 201.146 194.833 200.48 195.649 200C196.477 199.52 197.401 199.28 198.421 199.28C199.177 199.28 199.831 199.406 200.383 199.658C200.947 199.91 201.385 200.282 201.697 200.774L202.723 195.644H204.973ZM197.827 207.2C198.451 207.2 199.015 207.05 199.519 206.75C200.023 206.438 200.413 206.012 200.689 205.472C200.977 204.92 201.121 204.296 201.121 203.6C201.121 202.844 200.899 202.256 200.455 201.836C200.011 201.404 199.387 201.188 198.583 201.188C197.959 201.188 197.395 201.344 196.891 201.656C196.387 201.956 195.991 202.382 195.703 202.934C195.427 203.474 195.289 204.092 195.289 204.788C195.289 205.544 195.511 206.138 195.955 206.57C196.399 206.99 197.023 207.2 197.827 207.2ZM216.736 199.388L215.098 207.542C214.738 209.306 214.072 210.59 213.1 211.394C212.128 212.21 210.814 212.618 209.158 212.618C207.274 212.618 205.774 212.18 204.658 211.304L205.828 209.612C206.2 209.936 206.692 210.194 207.304 210.386C207.928 210.59 208.594 210.692 209.302 210.692C210.334 210.692 211.126 210.464 211.678 210.008C212.23 209.552 212.596 208.856 212.776 207.92L212.866 207.452C212.002 208.196 210.952 208.568 209.716 208.568C208.888 208.568 208.144 208.406 207.484 208.082C206.836 207.758 206.326 207.296 205.954 206.696C205.594 206.096 205.414 205.394 205.414 204.59C205.414 203.606 205.648 202.712 206.116 201.908C206.584 201.092 207.232 200.45 208.06 199.982C208.9 199.514 209.836 199.28 210.868 199.28C211.624 199.28 212.302 199.424 212.902 199.712C213.502 199.988 213.958 200.408 214.27 200.972L214.576 199.388H216.736ZM210.22 206.66C210.856 206.66 211.42 206.522 211.912 206.246C212.416 205.958 212.806 205.568 213.082 205.076C213.37 204.572 213.514 204.008 213.514 203.384C213.514 202.7 213.292 202.166 212.848 201.782C212.404 201.386 211.786 201.188 210.994 201.188C210.358 201.188 209.788 201.332 209.284 201.62C208.78 201.896 208.384 202.286 208.096 202.79C207.82 203.282 207.682 203.84 207.682 204.464C207.682 205.136 207.904 205.67 208.348 206.066C208.804 206.462 209.428 206.66 210.22 206.66ZM227.83 203.492C227.83 203.96 227.782 204.416 227.686 204.86H220.054C220.09 206.432 221.014 207.218 222.826 207.218C223.378 207.218 223.894 207.134 224.374 206.966C224.854 206.786 225.262 206.54 225.598 206.228L226.534 207.794C226.042 208.238 225.448 208.574 224.752 208.802C224.068 209.018 223.348 209.126 222.592 209.126C221.632 209.126 220.792 208.952 220.072 208.604C219.364 208.256 218.818 207.764 218.434 207.128C218.05 206.48 217.858 205.736 217.858 204.896C217.858 203.828 218.092 202.868 218.56 202.016C219.04 201.152 219.7 200.48 220.54 200C221.392 199.52 222.346 199.28 223.402 199.28C224.746 199.28 225.82 199.658 226.624 200.414C227.428 201.158 227.83 202.184 227.83 203.492ZM223.294 201.08C222.538 201.08 221.89 201.284 221.35 201.692C220.822 202.1 220.456 202.658 220.252 203.366H225.76C225.772 202.646 225.55 202.088 225.094 201.692C224.65 201.284 224.05 201.08 223.294 201.08ZM231.452 204.824C231.536 204.356 231.692 203.948 231.92 203.6C232.16 203.24 232.418 202.94 232.694 202.7C232.97 202.46 233.33 202.178 233.774 201.854C234.35 201.434 234.776 201.068 235.052 200.756C235.34 200.444 235.484 200.06 235.484 199.604C235.484 199.16 235.304 198.812 234.944 198.56C234.596 198.296 234.092 198.164 233.432 198.164C232.148 198.164 231.104 198.632 230.3 199.568L228.806 198.326C229.334 197.654 230.03 197.138 230.894 196.778C231.758 196.406 232.742 196.22 233.846 196.22C235.07 196.22 236.042 196.49 236.762 197.03C237.494 197.558 237.86 198.278 237.86 199.19C237.86 199.754 237.758 200.246 237.554 200.666C237.35 201.074 237.098 201.416 236.798 201.692C236.51 201.968 236.12 202.28 235.628 202.628C235.076 203.024 234.644 203.378 234.332 203.69C234.032 204.002 233.828 204.38 233.72 204.824H231.452ZM231.938 209.126C231.542 209.126 231.212 209 230.948 208.748C230.696 208.496 230.57 208.19 230.57 207.83C230.57 207.398 230.714 207.044 231.002 206.768C231.29 206.48 231.644 206.336 232.064 206.336C232.46 206.336 232.784 206.462 233.036 206.714C233.3 206.954 233.432 207.26 233.432 207.632C233.432 208.052 233.288 208.406 233 208.694C232.712 208.982 232.358 209.126 231.938 209.126Z" fill="white"/>
<path d="M257.24 114.885H260.552V117.765H257.336V127.509H253.592V117.765H251.6V114.885H253.592V114.309C253.592 112.837 254.024 111.669 254.888 110.805C255.768 109.941 257 109.509 258.584 109.509C259.144 109.509 259.672 109.573 260.168 109.701C260.68 109.813 261.104 109.981 261.44 110.205L260.456 112.917C260.024 112.613 259.52 112.461 258.944 112.461C257.808 112.461 257.24 113.085 257.24 114.333V114.885ZM268.397 127.701C267.037 127.701 265.813 127.421 264.725 126.861C263.653 126.285 262.813 125.493 262.205 124.485C261.597 123.477 261.293 122.333 261.293 121.053C261.293 119.773 261.597 118.629 262.205 117.621C262.813 116.613 263.653 115.829 264.725 115.269C265.813 114.693 267.037 114.405 268.397 114.405C269.757 114.405 270.973 114.693 272.045 115.269C273.117 115.829 273.957 116.613 274.565 117.621C275.173 118.629 275.477 119.773 275.477 121.053C275.477 122.333 275.173 123.477 274.565 124.485C273.957 125.493 273.117 126.285 272.045 126.861C270.973 127.421 269.757 127.701 268.397 127.701ZM268.397 124.629C269.357 124.629 270.141 124.309 270.749 123.669C271.373 123.013 271.685 122.141 271.685 121.053C271.685 119.965 271.373 119.101 270.749 118.461C270.141 117.805 269.357 117.477 268.397 117.477C267.437 117.477 266.645 117.805 266.021 118.461C265.397 119.101 265.085 119.965 265.085 121.053C265.085 122.141 265.397 123.013 266.021 123.669C266.645 124.309 267.437 124.629 268.397 124.629ZM281.556 116.301C282.004 115.677 282.604 115.205 283.356 114.885C284.124 114.565 285.004 114.405 285.996 114.405V117.861C285.58 117.829 285.3 117.813 285.156 117.813C284.084 117.813 283.244 118.117 282.636 118.725C282.028 119.317 281.724 120.213 281.724 121.413V127.509H277.98V114.597H281.556V116.301ZM307.929 114.597L302.097 128.301C301.505 129.789 300.769 130.837 299.889 131.445C299.025 132.053 297.977 132.357 296.745 132.357C296.073 132.357 295.409 132.253 294.753 132.045C294.097 131.837 293.561 131.549 293.145 131.181L294.513 128.517C294.801 128.773 295.129 128.973 295.497 129.117C295.881 129.261 296.257 129.333 296.625 129.333C297.137 129.333 297.553 129.205 297.873 128.949C298.193 128.709 298.481 128.301 298.737 127.725L298.785 127.605L293.193 114.597H297.057L300.681 123.357L304.329 114.597H307.929ZM315.249 127.701C313.889 127.701 312.665 127.421 311.577 126.861C310.505 126.285 309.665 125.493 309.057 124.485C308.449 123.477 308.145 122.333 308.145 121.053C308.145 119.773 308.449 118.629 309.057 117.621C309.665 116.613 310.505 115.829 311.577 115.269C312.665 114.693 313.889 114.405 315.249 114.405C316.609 114.405 317.825 114.693 318.897 115.269C319.969 115.829 320.809 116.613 321.417 117.621C322.025 118.629 322.329 119.773 322.329 121.053C322.329 122.333 322.025 123.477 321.417 124.485C320.809 125.493 319.969 126.285 318.897 126.861C317.825 127.421 316.609 127.701 315.249 127.701ZM315.249 124.629C316.209 124.629 316.993 124.309 317.601 123.669C318.225 123.013 318.537 122.141 318.537 121.053C318.537 119.965 318.225 119.101 317.601 118.461C316.993 117.805 316.209 117.477 315.249 117.477C314.289 117.477 313.497 117.805 312.873 118.461C312.249 119.101 311.937 119.965 311.937 121.053C311.937 122.141 312.249 123.013 312.873 123.669C313.497 124.309 314.289 124.629 315.249 124.629ZM337.84 114.597V127.509H334.288V125.973C333.792 126.533 333.2 126.965 332.512 127.269C331.824 127.557 331.08 127.701 330.28 127.701C328.584 127.701 327.24 127.213 326.248 126.237C325.256 125.261 324.76 123.813 324.76 121.893V114.597H328.504V121.341C328.504 123.421 329.376 124.461 331.12 124.461C332.016 124.461 332.736 124.173 333.28 123.597C333.824 123.005 334.096 122.133 334.096 120.981V114.597H337.84ZM344.884 116.301C345.332 115.677 345.932 115.205 346.684 114.885C347.452 114.565 348.332 114.405 349.324 114.405V117.861C348.908 117.829 348.628 117.813 348.484 117.813C347.412 117.813 346.572 118.117 345.964 118.725C345.356 119.317 345.052 120.213 345.052 121.413V127.509H341.308V114.597H344.884V116.301ZM364.681 127.701C363.305 127.701 362.065 127.421 360.961 126.861C359.873 126.285 359.017 125.493 358.393 124.485C357.785 123.477 357.481 122.333 357.481 121.053C357.481 119.773 357.785 118.629 358.393 117.621C359.017 116.613 359.873 115.829 360.961 115.269C362.065 114.693 363.305 114.405 364.681 114.405C366.041 114.405 367.225 114.693 368.233 115.269C369.257 115.829 370.001 116.637 370.465 117.693L367.561 119.253C366.889 118.069 365.921 117.477 364.657 117.477C363.681 117.477 362.873 117.797 362.233 118.437C361.593 119.077 361.273 119.949 361.273 121.053C361.273 122.157 361.593 123.029 362.233 123.669C362.873 124.309 363.681 124.629 364.657 124.629C365.937 124.629 366.905 124.037 367.561 122.853L370.465 124.437C370.001 125.461 369.257 126.261 368.233 126.837C367.225 127.413 366.041 127.701 364.681 127.701ZM378.601 127.701C377.241 127.701 376.017 127.421 374.929 126.861C373.857 126.285 373.017 125.493 372.409 124.485C371.801 123.477 371.497 122.333 371.497 121.053C371.497 119.773 371.801 118.629 372.409 117.621C373.017 116.613 373.857 115.829 374.929 115.269C376.017 114.693 377.241 114.405 378.601 114.405C379.961 114.405 381.177 114.693 382.249 115.269C383.321 115.829 384.161 116.613 384.769 117.621C385.377 118.629 385.681 119.773 385.681 121.053C385.681 122.333 385.377 123.477 384.769 124.485C384.161 125.493 383.321 126.285 382.249 126.861C381.177 127.421 379.961 127.701 378.601 127.701ZM378.601 124.629C379.561 124.629 380.345 124.309 380.953 123.669C381.577 123.013 381.889 122.141 381.889 121.053C381.889 119.965 381.577 119.101 380.953 118.461C380.345 117.805 379.561 117.477 378.601 117.477C377.641 117.477 376.849 117.805 376.225 118.461C375.601 119.101 375.289 119.965 375.289 121.053C375.289 122.141 375.601 123.013 376.225 123.669C376.849 124.309 377.641 124.629 378.601 124.629ZM404.719 114.405C406.335 114.405 407.615 114.885 408.559 115.845C409.519 116.789 409.999 118.213 409.999 120.117V127.509H406.255V120.693C406.255 119.669 406.039 118.909 405.607 118.413C405.191 117.901 404.591 117.645 403.807 117.645C402.927 117.645 402.231 117.933 401.719 118.509C401.207 119.069 400.951 119.909 400.951 121.029V127.509H397.207V120.693C397.207 118.661 396.391 117.645 394.759 117.645C393.895 117.645 393.207 117.933 392.695 118.509C392.183 119.069 391.927 119.909 391.927 121.029V127.509H388.183V114.597H391.759V116.085C392.239 115.541 392.823 115.125 393.511 114.837C394.215 114.549 394.983 114.405 395.815 114.405C396.727 114.405 397.551 114.589 398.287 114.957C399.023 115.309 399.615 115.829 400.063 116.517C400.591 115.845 401.255 115.325 402.055 114.957C402.871 114.589 403.759 114.405 404.719 114.405ZM420.987 114.405C422.187 114.405 423.275 114.685 424.251 115.245C425.243 115.789 426.019 116.565 426.579 117.573C427.139 118.565 427.419 119.725 427.419 121.053C427.419 122.381 427.139 123.549 426.579 124.557C426.019 125.549 425.243 126.325 424.251 126.885C423.275 127.429 422.187 127.701 420.987 127.701C419.339 127.701 418.043 127.181 417.099 126.141V132.165H413.355V114.597H416.931V116.085C417.859 114.965 419.211 114.405 420.987 114.405ZM420.339 124.629C421.299 124.629 422.083 124.309 422.691 123.669C423.315 123.013 423.627 122.141 423.627 121.053C423.627 119.965 423.315 119.101 422.691 118.461C422.083 117.805 421.299 117.477 420.339 117.477C419.379 117.477 418.587 117.805 417.963 118.461C417.355 119.101 417.051 119.965 417.051 121.053C417.051 122.141 417.355 123.013 417.963 123.669C418.587 124.309 419.379 124.629 420.339 124.629ZM434.922 114.405C436.922 114.405 438.458 114.885 439.53 115.845C440.602 116.789 441.138 118.221 441.138 120.141V127.509H437.634V125.901C436.93 127.101 435.618 127.701 433.698 127.701C432.706 127.701 431.842 127.533 431.106 127.197C430.386 126.861 429.834 126.397 429.45 125.805C429.066 125.213 428.874 124.541 428.874 123.789C428.874 122.589 429.322 121.645 430.218 120.957C431.13 120.269 432.53 119.925 434.418 119.925H437.394C437.394 119.109 437.146 118.485 436.65 118.053C436.154 117.605 435.41 117.381 434.418 117.381C433.73 117.381 433.05 117.493 432.378 117.717C431.722 117.925 431.162 118.213 430.698 118.581L429.354 115.965C430.058 115.469 430.898 115.085 431.874 114.813C432.866 114.541 433.882 114.405 434.922 114.405ZM434.634 125.181C435.274 125.181 435.842 125.037 436.338 124.749C436.834 124.445 437.186 124.005 437.394 123.429V122.109H434.826C433.29 122.109 432.522 122.613 432.522 123.621C432.522 124.101 432.706 124.485 433.074 124.773C433.458 125.045 433.978 125.181 434.634 125.181ZM452.375 114.405C453.975 114.405 455.263 114.885 456.239 115.845C457.231 116.805 457.727 118.229 457.727 120.117V127.509H453.983V120.693C453.983 119.669 453.759 118.909 453.311 118.413C452.863 117.901 452.215 117.645 451.367 117.645C450.423 117.645 449.671 117.941 449.111 118.533C448.551 119.109 448.271 119.973 448.271 121.125V127.509H444.527V114.597H448.103V116.109C448.599 115.565 449.215 115.149 449.951 114.861C450.687 114.557 451.495 114.405 452.375 114.405ZM473.702 114.597L467.87 128.301C467.278 129.789 466.542 130.837 465.662 131.445C464.798 132.053 463.75 132.357 462.518 132.357C461.846 132.357 461.182 132.253 460.526 132.045C459.87 131.837 459.334 131.549 458.918 131.181L460.286 128.517C460.574 128.773 460.902 128.973 461.27 129.117C461.654 129.261 462.03 129.333 462.398 129.333C462.91 129.333 463.326 129.205 463.646 128.949C463.966 128.709 464.254 128.301 464.51 127.725L464.558 127.605L458.966 114.597H462.83L466.454 123.357L470.102 114.597H473.702Z" fill="#7387C3"/>
<path d="M25.904 18.2V35H24.176V19.736H20.216V18.2H25.904Z" fill="white"/>
</svg>
