<svg width="530" height="277" viewBox="0 0 530 277" fill="none" xmlns="http://www.w3.org/2000/svg">
<rect width="529.933" height="276.506" rx="10" fill="#BFC9FF"/>
<path d="M124.803 92.8448C123.027 94.9568 120.891 96.5408 118.395 97.5968C115.899 98.7008 113.139 99.2528 110.115 99.2528C107.091 99.2528 104.379 98.8688 101.979 98.1008C99.5792 97.3808 97.1792 96.1328 94.7792 94.3568C92.3792 92.6288 89.6432 90.1568 86.5712 86.9408C82.3472 86.0768 78.6272 84.4448 75.4112 82.0448C72.1952 79.5968 69.6752 76.5968 67.8512 73.0448C66.0752 69.4928 65.1872 65.5808 65.1872 61.3088C65.1872 56.2688 66.4112 51.7568 68.8592 47.7728C71.3072 43.7408 74.6912 40.5968 79.0112 38.3408C83.3312 36.0848 88.2032 34.9568 93.6272 34.9568C99.0512 34.9568 103.923 36.0848 108.243 38.3408C112.563 40.5968 115.947 43.7408 118.395 47.7728C120.843 51.7568 122.067 56.2688 122.067 61.3088C122.067 66.8288 120.603 71.7248 117.675 75.9968C114.747 80.2208 110.787 83.3408 105.795 85.3568C106.515 86.1248 107.235 86.6528 107.955 86.9408C108.723 87.2768 109.563 87.4448 110.475 87.4448C112.971 87.4448 115.299 86.3648 117.459 84.2048L124.803 92.8448ZM93.6272 48.7088C91.5152 48.7088 89.5952 49.2368 87.8672 50.2928C86.1872 51.3008 84.8432 52.7648 83.8352 54.6848C82.8272 56.5568 82.3232 58.7648 82.3232 61.3088C82.3232 63.8528 82.8272 66.0848 83.8352 68.0048C84.8432 69.8768 86.1872 71.3408 87.8672 72.3968C89.5952 73.4048 91.5152 73.9088 93.6272 73.9088C95.7392 73.9088 97.6352 73.4048 99.3152 72.3968C101.043 71.3408 102.411 69.8768 103.419 68.0048C104.427 66.0848 104.931 63.8528 104.931 61.3088C104.931 58.7648 104.427 56.5568 103.419 54.6848C102.411 52.7648 101.043 51.3008 99.3152 50.2928C97.6352 49.2368 95.7392 48.7088 93.6272 48.7088ZM152.354 87.6608C144.626 87.6608 138.602 85.5728 134.282 81.3968C129.962 77.2208 127.802 71.3648 127.802 63.8288V36.1088H144.794V63.3248C144.794 67.0208 145.442 69.7088 146.738 71.3888C148.082 73.0688 150.002 73.9088 152.498 73.9088C154.994 73.9088 156.89 73.0688 158.186 71.3888C159.53 69.7088 160.202 67.0208 160.202 63.3248V36.1088H176.906V63.8288C176.906 71.3648 174.746 77.2208 170.426 81.3968C166.106 85.5728 160.082 87.6608 152.354 87.6608ZM226.599 73.6928V86.5088H184.695V36.1088H225.663V48.9248H201.399V54.8288H222.711V67.0688H201.399V73.6928H226.599ZM251.933 87.6608C247.757 87.6608 243.677 87.2048 239.693 86.2928C235.757 85.3328 232.517 84.0608 229.973 82.4768L235.445 70.0928C237.845 71.4848 240.533 72.6128 243.509 73.4768C246.485 74.2928 249.341 74.7008 252.077 74.7008C254.429 74.7008 256.109 74.4848 257.117 74.0528C258.125 73.5728 258.629 72.8768 258.629 71.9648C258.629 70.9088 257.957 70.1168 256.613 69.5888C255.317 69.0608 253.157 68.4848 250.133 67.8608C246.245 67.0448 243.005 66.1808 240.413 65.2688C237.821 64.3088 235.565 62.7728 233.645 60.6608C231.725 58.5008 230.765 55.5968 230.765 51.9488C230.765 48.7808 231.653 45.9008 233.429 43.3088C235.205 40.7168 237.845 38.6768 241.349 37.1888C244.901 35.7008 249.197 34.9568 254.237 34.9568C257.693 34.9568 261.077 35.3408 264.389 36.1088C267.749 36.8288 270.701 37.9088 273.245 39.3488L268.133 51.6608C263.189 49.1648 258.509 47.9168 254.093 47.9168C249.725 47.9168 247.541 48.9728 247.541 51.0848C247.541 52.0928 248.189 52.8608 249.485 53.3888C250.781 53.8688 252.917 54.3968 255.893 54.9728C259.733 55.6928 262.973 56.5328 265.613 57.4928C268.253 58.4048 270.533 59.9168 272.453 62.0288C274.421 64.1408 275.405 67.0208 275.405 70.6688C275.405 73.8368 274.517 76.7168 272.741 79.3088C270.965 81.8528 268.301 83.8928 264.749 85.4288C261.245 86.9168 256.973 87.6608 251.933 87.6608ZM290.702 49.2848H275.942V36.1088H322.454V49.2848H307.694V86.5088H290.702V49.2848ZM326.867 36.1088H343.859V86.5088H326.867V36.1088ZM378.463 87.6608C373.039 87.6608 368.167 86.5328 363.847 84.2768C359.527 82.0208 356.143 78.9008 353.695 74.9168C351.247 70.8848 350.023 66.3488 350.023 61.3088C350.023 56.2688 351.247 51.7568 353.695 47.7728C356.143 43.7408 359.527 40.5968 363.847 38.3408C368.167 36.0848 373.039 34.9568 378.463 34.9568C383.887 34.9568 388.759 36.0848 393.079 38.3408C397.399 40.5968 400.783 43.7408 403.231 47.7728C405.679 51.7568 406.903 56.2688 406.903 61.3088C406.903 66.3488 405.679 70.8848 403.231 74.9168C400.783 78.9008 397.399 82.0208 393.079 84.2768C388.759 86.5328 383.887 87.6608 378.463 87.6608ZM378.463 73.9088C380.575 73.9088 382.471 73.4048 384.151 72.3968C385.879 71.3408 387.247 69.8768 388.255 68.0048C389.263 66.0848 389.767 63.8528 389.767 61.3088C389.767 58.7648 389.263 56.5568 388.255 54.6848C387.247 52.7648 385.879 51.3008 384.151 50.2928C382.471 49.2368 380.575 48.7088 378.463 48.7088C376.351 48.7088 374.431 49.2368 372.703 50.2928C371.023 51.3008 369.679 52.7648 368.671 54.6848C367.663 56.5568 367.159 58.7648 367.159 61.3088C367.159 63.8528 367.663 66.0848 368.671 68.0048C369.679 69.8768 371.023 71.3408 372.703 72.3968C374.431 73.4048 376.351 73.9088 378.463 73.9088ZM462.75 36.1088V86.5088H448.782L429.63 63.6128V86.5088H413.07V36.1088H427.038L446.19 59.0048V36.1088H462.75Z" fill="#45537C"/>
<path d="M68.2248 169.4H73.3188C74.5788 169.4 75.6708 169.616 76.5948 170.048C77.5188 170.468 78.2208 171.068 78.7008 171.848C79.1928 172.628 79.4388 173.546 79.4388 174.602C79.4388 176.078 79.1088 177.374 78.4488 178.49C77.8008 179.606 76.8828 180.47 75.6948 181.082C74.5068 181.694 73.1388 182 71.5908 182H65.7048L68.2248 169.4ZM71.6628 180.02C72.7668 180.02 73.7268 179.792 74.5428 179.336C75.3588 178.88 75.9828 178.256 76.4148 177.464C76.8588 176.66 77.0808 175.754 77.0808 174.746C77.0808 173.69 76.7388 172.868 76.0548 172.28C75.3708 171.68 74.3748 171.38 73.0668 171.38H70.1688L68.4408 180.02H71.6628ZM85.1119 182.126C84.1759 182.126 83.3539 181.952 82.6459 181.604C81.9499 181.244 81.4099 180.746 81.0259 180.11C80.6419 179.474 80.4499 178.736 80.4499 177.896C80.4499 176.828 80.6899 175.868 81.1699 175.016C81.6619 174.164 82.3399 173.498 83.2039 173.018C84.0799 172.526 85.0639 172.28 86.1559 172.28C87.0919 172.28 87.9139 172.454 88.6219 172.802C89.3299 173.15 89.8759 173.642 90.2599 174.278C90.6439 174.914 90.8359 175.652 90.8359 176.492C90.8359 177.56 90.5899 178.52 90.0979 179.372C89.6059 180.224 88.9219 180.896 88.0459 181.388C87.1819 181.88 86.2039 182.126 85.1119 182.126ZM85.2559 180.2C85.8919 180.2 86.4559 180.05 86.9479 179.75C87.4519 179.438 87.8479 179.012 88.1359 178.472C88.4239 177.92 88.5679 177.296 88.5679 176.6C88.5679 175.844 88.3459 175.256 87.9019 174.836C87.4579 174.404 86.8339 174.188 86.0299 174.188C85.3939 174.188 84.8239 174.344 84.3199 174.656C83.8279 174.956 83.4379 175.382 83.1499 175.934C82.8619 176.474 82.7179 177.092 82.7179 177.788C82.7179 178.544 82.9399 179.138 83.3839 179.57C83.8279 179.99 84.4519 180.2 85.2559 180.2ZM107.862 172.388L101.238 182.846C100.578 183.89 99.9481 184.61 99.3481 185.006C98.7601 185.414 98.0401 185.618 97.1881 185.618C96.7081 185.618 96.2341 185.54 95.7661 185.384C95.2981 185.228 94.9321 185.024 94.6681 184.772L95.7841 183.134C96.2281 183.542 96.7561 183.746 97.3681 183.746C97.7521 183.746 98.0881 183.644 98.3761 183.44C98.6641 183.248 98.9581 182.912 99.2581 182.432L99.5641 181.964L97.2961 172.388H99.5461L101.166 179.516L105.612 172.388H107.862ZM111.831 182.126C110.895 182.126 110.073 181.952 109.365 181.604C108.669 181.244 108.129 180.746 107.745 180.11C107.361 179.474 107.169 178.736 107.169 177.896C107.169 176.828 107.409 175.868 107.889 175.016C108.381 174.164 109.059 173.498 109.923 173.018C110.799 172.526 111.783 172.28 112.875 172.28C113.811 172.28 114.633 172.454 115.341 172.802C116.049 173.15 116.595 173.642 116.979 174.278C117.363 174.914 117.555 175.652 117.555 176.492C117.555 177.56 117.309 178.52 116.817 179.372C116.325 180.224 115.641 180.896 114.765 181.388C113.901 181.88 112.923 182.126 111.831 182.126ZM111.975 180.2C112.611 180.2 113.175 180.05 113.667 179.75C114.171 179.438 114.567 179.012 114.855 178.472C115.143 177.92 115.287 177.296 115.287 176.6C115.287 175.844 115.065 175.256 114.621 174.836C114.177 174.404 113.553 174.188 112.749 174.188C112.113 174.188 111.543 174.344 111.039 174.656C110.547 174.956 110.157 175.382 109.869 175.934C109.581 176.474 109.437 177.092 109.437 177.788C109.437 178.544 109.659 179.138 110.103 179.57C110.547 179.99 111.171 180.2 111.975 180.2ZM129.912 172.388L127.986 182H125.844L126.06 180.938C125.196 181.73 124.11 182.126 122.802 182.126C121.746 182.126 120.9 181.844 120.264 181.28C119.64 180.704 119.328 179.9 119.328 178.868C119.328 178.484 119.37 178.1 119.454 177.716L120.516 172.388H122.766L121.704 177.662C121.656 177.902 121.632 178.148 121.632 178.4C121.632 178.964 121.788 179.396 122.1 179.696C122.424 179.996 122.904 180.146 123.54 180.146C124.356 180.146 125.034 179.918 125.574 179.462C126.114 178.994 126.474 178.298 126.654 177.374L127.662 172.388H129.912ZM152.935 172.388L147.571 182H145.357L144.061 175.376L140.299 182H138.121L136.357 172.388H138.409L139.633 179.462L143.647 172.388H145.573L146.851 179.462L150.811 172.388H152.935ZM163.541 172.388L161.633 182H159.491L159.689 181.01C158.849 181.754 157.805 182.126 156.557 182.126C155.765 182.126 155.045 181.958 154.397 181.622C153.761 181.286 153.257 180.8 152.885 180.164C152.513 179.516 152.327 178.76 152.327 177.896C152.327 176.828 152.561 175.868 153.029 175.016C153.509 174.152 154.157 173.48 154.973 173C155.801 172.52 156.725 172.28 157.745 172.28C159.281 172.28 160.373 172.79 161.021 173.81L161.291 172.388H163.541ZM157.133 180.2C157.769 180.2 158.333 180.05 158.825 179.75C159.329 179.438 159.725 179.012 160.013 178.472C160.301 177.92 160.445 177.296 160.445 176.6C160.445 175.844 160.223 175.256 159.779 174.836C159.335 174.404 158.711 174.188 157.907 174.188C157.271 174.188 156.701 174.344 156.197 174.656C155.705 174.956 155.315 175.382 155.027 175.934C154.739 176.474 154.595 177.092 154.595 177.788C154.595 178.544 154.817 179.138 155.261 179.57C155.705 179.99 156.329 180.2 157.133 180.2ZM171.723 172.28C172.803 172.28 173.655 172.562 174.279 173.126C174.915 173.69 175.233 174.488 175.233 175.52C175.233 175.808 175.191 176.192 175.107 176.672L174.045 182H171.795L172.839 176.726C172.887 176.486 172.911 176.24 172.911 175.988C172.911 174.824 172.269 174.242 170.985 174.242C170.157 174.242 169.473 174.476 168.933 174.944C168.393 175.4 168.027 176.09 167.835 177.014L166.827 182H164.577L166.485 172.388H168.627L168.411 173.45C169.275 172.67 170.379 172.28 171.723 172.28ZM180.067 178.778C180.043 178.97 180.031 179.108 180.031 179.192C180.031 179.912 180.409 180.272 181.165 180.272C181.633 180.272 182.053 180.146 182.425 179.894L182.821 181.55C182.209 181.934 181.435 182.126 180.499 182.126C179.671 182.126 179.005 181.898 178.501 181.442C177.997 180.986 177.745 180.356 177.745 179.552C177.745 179.288 177.769 179.036 177.817 178.796L178.735 174.26H177.169L177.529 172.46H179.095L179.527 170.264H181.777L181.327 172.46H183.919L183.559 174.26H180.967L180.067 178.778ZM200.428 172.388L193.804 182.846C193.144 183.89 192.514 184.61 191.914 185.006C191.326 185.414 190.606 185.618 189.754 185.618C189.274 185.618 188.8 185.54 188.332 185.384C187.864 185.228 187.498 185.024 187.234 184.772L188.35 183.134C188.794 183.542 189.322 183.746 189.934 183.746C190.318 183.746 190.654 183.644 190.942 183.44C191.23 183.248 191.524 182.912 191.824 182.432L192.13 181.964L189.862 172.388H192.112L193.732 179.516L198.178 172.388H200.428ZM204.397 182.126C203.461 182.126 202.639 181.952 201.931 181.604C201.235 181.244 200.695 180.746 200.311 180.11C199.927 179.474 199.735 178.736 199.735 177.896C199.735 176.828 199.975 175.868 200.455 175.016C200.947 174.164 201.625 173.498 202.489 173.018C203.365 172.526 204.349 172.28 205.441 172.28C206.377 172.28 207.199 172.454 207.907 172.802C208.615 173.15 209.161 173.642 209.545 174.278C209.929 174.914 210.121 175.652 210.121 176.492C210.121 177.56 209.875 178.52 209.383 179.372C208.891 180.224 208.207 180.896 207.331 181.388C206.467 181.88 205.489 182.126 204.397 182.126ZM204.541 180.2C205.177 180.2 205.741 180.05 206.233 179.75C206.737 179.438 207.133 179.012 207.421 178.472C207.709 177.92 207.853 177.296 207.853 176.6C207.853 175.844 207.631 175.256 207.187 174.836C206.743 174.404 206.119 174.188 205.315 174.188C204.679 174.188 204.109 174.344 203.605 174.656C203.113 174.956 202.723 175.382 202.435 175.934C202.147 176.474 202.003 177.092 202.003 177.788C202.003 178.544 202.225 179.138 202.669 179.57C203.113 179.99 203.737 180.2 204.541 180.2ZM222.479 172.388L220.553 182H218.411L218.627 180.938C217.763 181.73 216.677 182.126 215.369 182.126C214.313 182.126 213.467 181.844 212.831 181.28C212.207 180.704 211.895 179.9 211.895 178.868C211.895 178.484 211.937 178.1 212.021 177.716L213.083 172.388H215.333L214.271 177.662C214.223 177.902 214.199 178.148 214.199 178.4C214.199 178.964 214.355 179.396 214.667 179.696C214.991 179.996 215.471 180.146 216.107 180.146C216.923 180.146 217.601 179.918 218.141 179.462C218.681 178.994 219.041 178.298 219.221 177.374L220.229 172.388H222.479ZM227.297 173.63C227.717 173.138 228.227 172.79 228.827 172.586C229.439 172.382 230.165 172.28 231.005 172.28L230.591 174.422C230.387 174.386 230.201 174.368 230.033 174.368C228.197 174.368 227.087 175.334 226.703 177.266L225.749 182H223.499L225.407 172.388H227.549L227.297 173.63ZM243.016 172.28C243.808 172.28 244.522 172.448 245.158 172.784C245.806 173.12 246.316 173.606 246.688 174.242C247.06 174.878 247.246 175.628 247.246 176.492C247.246 177.56 247.006 178.526 246.526 179.39C246.058 180.242 245.41 180.914 244.582 181.406C243.766 181.886 242.854 182.126 241.846 182.126C241.054 182.126 240.37 181.988 239.794 181.712C239.218 181.424 238.78 181.01 238.48 180.47L238.174 182H236.032L238.696 168.644H240.946L240.028 173.288C240.844 172.616 241.84 172.28 243.016 172.28ZM241.666 180.2C242.302 180.2 242.866 180.05 243.358 179.75C243.862 179.438 244.258 179.012 244.546 178.472C244.834 177.92 244.978 177.296 244.978 176.6C244.978 175.844 244.756 175.256 244.312 174.836C243.868 174.404 243.244 174.188 242.44 174.188C241.804 174.188 241.234 174.344 240.73 174.656C240.238 174.956 239.848 175.382 239.56 175.934C239.272 176.474 239.128 177.092 239.128 177.788C239.128 178.544 239.35 179.138 239.794 179.57C240.238 179.99 240.862 180.2 241.666 180.2ZM259.604 172.388L257.678 182H255.536L255.752 180.938C254.888 181.73 253.802 182.126 252.494 182.126C251.438 182.126 250.592 181.844 249.956 181.28C249.332 180.704 249.02 179.9 249.02 178.868C249.02 178.484 249.062 178.1 249.146 177.716L250.208 172.388H252.458L251.396 177.662C251.348 177.902 251.324 178.148 251.324 178.4C251.324 178.964 251.48 179.396 251.792 179.696C252.116 179.996 252.596 180.146 253.232 180.146C254.048 180.146 254.726 179.918 255.266 179.462C255.806 178.994 256.166 178.298 256.346 177.374L257.354 172.388H259.604ZM263.9 182.126C263.084 182.126 262.304 182.03 261.56 181.838C260.828 181.634 260.258 181.382 259.85 181.082L260.786 179.354C261.182 179.642 261.68 179.87 262.28 180.038C262.88 180.206 263.498 180.29 264.134 180.29C264.854 180.29 265.394 180.194 265.754 180.002C266.126 179.798 266.312 179.51 266.312 179.138C266.312 178.85 266.156 178.64 265.844 178.508C265.544 178.376 265.064 178.238 264.404 178.094C263.72 177.962 263.156 177.824 262.712 177.68C262.28 177.524 261.902 177.278 261.578 176.942C261.266 176.594 261.11 176.12 261.11 175.52C261.11 174.524 261.524 173.738 262.352 173.162C263.192 172.574 264.302 172.28 265.682 172.28C266.342 172.28 266.984 172.358 267.608 172.514C268.232 172.658 268.742 172.856 269.138 173.108L268.31 174.836C267.914 174.584 267.464 174.398 266.96 174.278C266.468 174.158 265.97 174.098 265.466 174.098C264.758 174.098 264.218 174.206 263.846 174.422C263.486 174.638 263.306 174.92 263.306 175.268C263.306 175.58 263.462 175.808 263.774 175.952C264.098 176.084 264.596 176.222 265.268 176.366C265.94 176.498 266.492 176.642 266.924 176.798C267.356 176.942 267.728 177.182 268.04 177.518C268.352 177.854 268.508 178.31 268.508 178.886C268.508 179.918 268.088 180.716 267.248 181.28C266.408 181.844 265.292 182.126 263.9 182.126ZM271.795 172.388H274.045L272.137 182H269.887L271.795 172.388ZM273.433 170.804C273.037 170.804 272.713 170.684 272.461 170.444C272.209 170.192 272.083 169.892 272.083 169.544C272.083 169.136 272.221 168.794 272.497 168.518C272.785 168.242 273.157 168.104 273.613 168.104C274.009 168.104 274.333 168.224 274.585 168.464C274.837 168.692 274.963 168.974 274.963 169.31C274.963 169.754 274.819 170.114 274.531 170.39C274.255 170.666 273.889 170.804 273.433 170.804ZM282.236 172.28C283.316 172.28 284.168 172.562 284.792 173.126C285.428 173.69 285.746 174.488 285.746 175.52C285.746 175.808 285.704 176.192 285.62 176.672L284.558 182H282.308L283.352 176.726C283.4 176.486 283.424 176.24 283.424 175.988C283.424 174.824 282.782 174.242 281.498 174.242C280.67 174.242 279.986 174.476 279.446 174.944C278.906 175.4 278.54 176.09 278.348 177.014L277.34 182H275.09L276.998 172.388H279.14L278.924 173.45C279.788 172.67 280.892 172.28 282.236 172.28ZM297.563 176.492C297.563 176.96 297.515 177.416 297.419 177.86H289.787C289.823 179.432 290.747 180.218 292.559 180.218C293.111 180.218 293.627 180.134 294.107 179.966C294.587 179.786 294.995 179.54 295.331 179.228L296.267 180.794C295.775 181.238 295.181 181.574 294.485 181.802C293.801 182.018 293.081 182.126 292.325 182.126C291.365 182.126 290.525 181.952 289.805 181.604C289.097 181.256 288.551 180.764 288.167 180.128C287.783 179.48 287.591 178.736 287.591 177.896C287.591 176.828 287.825 175.868 288.293 175.016C288.773 174.152 289.433 173.48 290.273 173C291.125 172.52 292.079 172.28 293.135 172.28C294.479 172.28 295.553 172.658 296.357 173.414C297.161 174.158 297.563 175.184 297.563 176.492ZM293.027 174.08C292.271 174.08 291.623 174.284 291.083 174.692C290.555 175.1 290.189 175.658 289.985 176.366H295.493C295.505 175.646 295.283 175.088 294.827 174.692C294.383 174.284 293.783 174.08 293.027 174.08ZM301.921 182.126C301.105 182.126 300.325 182.03 299.581 181.838C298.849 181.634 298.279 181.382 297.871 181.082L298.807 179.354C299.203 179.642 299.701 179.87 300.301 180.038C300.901 180.206 301.519 180.29 302.155 180.29C302.875 180.29 303.415 180.194 303.775 180.002C304.147 179.798 304.333 179.51 304.333 179.138C304.333 178.85 304.177 178.64 303.865 178.508C303.565 178.376 303.085 178.238 302.425 178.094C301.741 177.962 301.177 177.824 300.733 177.68C300.301 177.524 299.923 177.278 299.599 176.942C299.287 176.594 299.131 176.12 299.131 175.52C299.131 174.524 299.545 173.738 300.373 173.162C301.213 172.574 302.323 172.28 303.703 172.28C304.363 172.28 305.005 172.358 305.629 172.514C306.253 172.658 306.763 172.856 307.159 173.108L306.331 174.836C305.935 174.584 305.485 174.398 304.981 174.278C304.489 174.158 303.991 174.098 303.487 174.098C302.779 174.098 302.239 174.206 301.867 174.422C301.507 174.638 301.327 174.92 301.327 175.268C301.327 175.58 301.483 175.808 301.795 175.952C302.119 176.084 302.617 176.222 303.289 176.366C303.961 176.498 304.513 176.642 304.945 176.798C305.377 176.942 305.749 177.182 306.061 177.518C306.373 177.854 306.529 178.31 306.529 178.886C306.529 179.918 306.109 180.716 305.269 181.28C304.429 181.844 303.313 182.126 301.921 182.126ZM311.185 182.126C310.369 182.126 309.589 182.03 308.845 181.838C308.113 181.634 307.543 181.382 307.135 181.082L308.071 179.354C308.467 179.642 308.965 179.87 309.565 180.038C310.165 180.206 310.783 180.29 311.419 180.29C312.139 180.29 312.679 180.194 313.039 180.002C313.411 179.798 313.597 179.51 313.597 179.138C313.597 178.85 313.441 178.64 313.129 178.508C312.829 178.376 312.349 178.238 311.689 178.094C311.005 177.962 310.441 177.824 309.997 177.68C309.565 177.524 309.187 177.278 308.863 176.942C308.551 176.594 308.395 176.12 308.395 175.52C308.395 174.524 308.809 173.738 309.637 173.162C310.477 172.574 311.587 172.28 312.967 172.28C313.627 172.28 314.269 172.358 314.893 172.514C315.517 172.658 316.027 172.856 316.423 173.108L315.595 174.836C315.199 174.584 314.749 174.398 314.245 174.278C313.753 174.158 313.255 174.098 312.751 174.098C312.043 174.098 311.503 174.206 311.131 174.422C310.771 174.638 310.591 174.92 310.591 175.268C310.591 175.58 310.747 175.808 311.059 175.952C311.383 176.084 311.881 176.222 312.553 176.366C313.225 176.498 313.777 176.642 314.209 176.798C314.641 176.942 315.013 177.182 315.325 177.518C315.637 177.854 315.793 178.31 315.793 178.886C315.793 179.918 315.373 180.716 314.533 181.28C313.693 181.844 312.577 182.126 311.185 182.126ZM325.315 178.778C325.291 178.97 325.279 179.108 325.279 179.192C325.279 179.912 325.657 180.272 326.413 180.272C326.881 180.272 327.301 180.146 327.673 179.894L328.069 181.55C327.457 181.934 326.683 182.126 325.747 182.126C324.919 182.126 324.253 181.898 323.749 181.442C323.245 180.986 322.993 180.356 322.993 179.552C322.993 179.288 323.017 179.036 323.065 178.796L323.983 174.26H322.417L322.777 172.46H324.343L324.775 170.264H327.025L326.575 172.46H329.167L328.807 174.26H326.215L325.315 178.778ZM334.212 182.126C333.276 182.126 332.454 181.952 331.746 181.604C331.05 181.244 330.51 180.746 330.125 180.11C329.742 179.474 329.55 178.736 329.55 177.896C329.55 176.828 329.79 175.868 330.27 175.016C330.762 174.164 331.44 173.498 332.304 173.018C333.18 172.526 334.164 172.28 335.256 172.28C336.192 172.28 337.014 172.454 337.722 172.802C338.43 173.15 338.976 173.642 339.36 174.278C339.744 174.914 339.936 175.652 339.936 176.492C339.936 177.56 339.69 178.52 339.198 179.372C338.706 180.224 338.022 180.896 337.146 181.388C336.282 181.88 335.304 182.126 334.212 182.126ZM334.356 180.2C334.992 180.2 335.556 180.05 336.048 179.75C336.552 179.438 336.948 179.012 337.236 178.472C337.524 177.92 337.668 177.296 337.668 176.6C337.668 175.844 337.446 175.256 337.002 174.836C336.558 174.404 335.934 174.188 335.13 174.188C334.494 174.188 333.924 174.344 333.42 174.656C332.928 174.956 332.538 175.382 332.25 175.934C331.962 176.474 331.818 177.092 331.818 177.788C331.818 178.544 332.04 179.138 332.484 179.57C332.928 179.99 333.552 180.2 334.356 180.2ZM349.312 182.126C348.496 182.126 347.716 182.03 346.972 181.838C346.24 181.634 345.67 181.382 345.262 181.082L346.198 179.354C346.594 179.642 347.092 179.87 347.692 180.038C348.292 180.206 348.91 180.29 349.546 180.29C350.266 180.29 350.806 180.194 351.166 180.002C351.538 179.798 351.724 179.51 351.724 179.138C351.724 178.85 351.568 178.64 351.256 178.508C350.956 178.376 350.476 178.238 349.816 178.094C349.132 177.962 348.568 177.824 348.124 177.68C347.692 177.524 347.314 177.278 346.99 176.942C346.678 176.594 346.522 176.12 346.522 175.52C346.522 174.524 346.936 173.738 347.764 173.162C348.604 172.574 349.714 172.28 351.094 172.28C351.754 172.28 352.396 172.358 353.02 172.514C353.644 172.658 354.154 172.856 354.55 173.108L353.722 174.836C353.326 174.584 352.876 174.398 352.372 174.278C351.88 174.158 351.382 174.098 350.878 174.098C350.17 174.098 349.63 174.206 349.258 174.422C348.898 174.638 348.718 174.92 348.718 175.268C348.718 175.58 348.874 175.808 349.186 175.952C349.51 176.084 350.008 176.222 350.68 176.366C351.352 176.498 351.904 176.642 352.336 176.798C352.768 176.942 353.14 177.182 353.452 177.518C353.764 177.854 353.92 178.31 353.92 178.886C353.92 179.918 353.5 180.716 352.66 181.28C351.82 181.844 350.704 182.126 349.312 182.126ZM358.467 178.778C358.443 178.97 358.431 179.108 358.431 179.192C358.431 179.912 358.809 180.272 359.565 180.272C360.033 180.272 360.453 180.146 360.825 179.894L361.221 181.55C360.609 181.934 359.835 182.126 358.899 182.126C358.071 182.126 357.405 181.898 356.901 181.442C356.397 180.986 356.145 180.356 356.145 179.552C356.145 179.288 356.169 179.036 356.217 178.796L357.135 174.26H355.569L355.929 172.46H357.495L357.927 170.264H360.177L359.727 172.46H362.319L361.959 174.26H359.367L358.467 178.778ZM373.916 172.388L372.008 182H369.866L370.064 181.01C369.224 181.754 368.18 182.126 366.932 182.126C366.14 182.126 365.42 181.958 364.772 181.622C364.136 181.286 363.632 180.8 363.26 180.164C362.888 179.516 362.702 178.76 362.702 177.896C362.702 176.828 362.936 175.868 363.404 175.016C363.884 174.152 364.532 173.48 365.348 173C366.176 172.52 367.1 172.28 368.12 172.28C369.656 172.28 370.748 172.79 371.396 173.81L371.666 172.388H373.916ZM367.508 180.2C368.144 180.2 368.708 180.05 369.2 179.75C369.704 179.438 370.1 179.012 370.388 178.472C370.676 177.92 370.82 177.296 370.82 176.6C370.82 175.844 370.598 175.256 370.154 174.836C369.71 174.404 369.086 174.188 368.282 174.188C367.646 174.188 367.076 174.344 366.572 174.656C366.08 174.956 365.69 175.382 365.402 175.934C365.114 176.474 364.97 177.092 364.97 177.788C364.97 178.544 365.192 179.138 365.636 179.57C366.08 179.99 366.704 180.2 367.508 180.2ZM385.878 172.388L379.254 182.846C378.594 183.89 377.964 184.61 377.364 185.006C376.776 185.414 376.056 185.618 375.204 185.618C374.724 185.618 374.25 185.54 373.782 185.384C373.314 185.228 372.948 185.024 372.684 184.772L373.8 183.134C374.244 183.542 374.772 183.746 375.384 183.746C375.768 183.746 376.104 183.644 376.392 183.44C376.68 183.248 376.974 182.912 377.274 182.432L377.58 181.964L375.312 172.388H377.562L379.182 179.516L383.628 172.388H385.878ZM69.2868 200.63C69.7068 200.138 70.2168 199.79 70.8168 199.586C71.4288 199.382 72.1548 199.28 72.9948 199.28L72.5808 201.422C72.3768 201.386 72.1908 201.368 72.0228 201.368C70.1868 201.368 69.0768 202.334 68.6928 204.266L67.7388 209H65.4888L67.3968 199.388H69.5388L69.2868 200.63ZM82.9336 203.492C82.9336 203.96 82.8856 204.416 82.7896 204.86H75.1576C75.1936 206.432 76.1176 207.218 77.9296 207.218C78.4816 207.218 78.9976 207.134 79.4776 206.966C79.9576 206.786 80.3656 206.54 80.7016 206.228L81.6376 207.794C81.1456 208.238 80.5516 208.574 79.8556 208.802C79.1716 209.018 78.4516 209.126 77.6956 209.126C76.7356 209.126 75.8956 208.952 75.1756 208.604C74.4676 208.256 73.9216 207.764 73.5376 207.128C73.1536 206.48 72.9616 205.736 72.9616 204.896C72.9616 203.828 73.1956 202.868 73.6636 202.016C74.1436 201.152 74.8036 200.48 75.6436 200C76.4956 199.52 77.4496 199.28 78.5056 199.28C79.8496 199.28 80.9236 199.658 81.7276 200.414C82.5316 201.158 82.9336 202.184 82.9336 203.492ZM78.3976 201.08C77.6416 201.08 76.9936 201.284 76.4536 201.692C75.9256 202.1 75.5596 202.658 75.3556 203.366H80.8636C80.8756 202.646 80.6536 202.088 80.1976 201.692C79.7536 201.284 79.1536 201.08 78.3976 201.08ZM86.6801 195.644H88.9301L86.2661 209H84.0161L86.6801 195.644ZM99.2813 203.492C99.2813 203.96 99.2333 204.416 99.1373 204.86H91.5053C91.5413 206.432 92.4653 207.218 94.2773 207.218C94.8293 207.218 95.3453 207.134 95.8253 206.966C96.3053 206.786 96.7133 206.54 97.0493 206.228L97.9853 207.794C97.4933 208.238 96.8993 208.574 96.2033 208.802C95.5193 209.018 94.7993 209.126 94.0433 209.126C93.0833 209.126 92.2433 208.952 91.5233 208.604C90.8153 208.256 90.2693 207.764 89.8853 207.128C89.5013 206.48 89.3093 205.736 89.3093 204.896C89.3093 203.828 89.5433 202.868 90.0113 202.016C90.4913 201.152 91.1513 200.48 91.9913 200C92.8433 199.52 93.7973 199.28 94.8533 199.28C96.1973 199.28 97.2713 199.658 98.0753 200.414C98.8793 201.158 99.2813 202.184 99.2813 203.492ZM94.7453 201.08C93.9893 201.08 93.3413 201.284 92.8013 201.692C92.2733 202.1 91.9073 202.658 91.7033 203.366H97.2113C97.2233 202.646 97.0013 202.088 96.5453 201.692C96.1013 201.284 95.5013 201.08 94.7453 201.08ZM111.114 199.388L105.084 209H102.762L100.548 199.388H102.762L104.364 206.534L108.846 199.388H111.114ZM121.635 199.388L119.727 209H117.585L117.783 208.01C116.943 208.754 115.899 209.126 114.651 209.126C113.859 209.126 113.139 208.958 112.491 208.622C111.855 208.286 111.351 207.8 110.979 207.164C110.607 206.516 110.421 205.76 110.421 204.896C110.421 203.828 110.655 202.868 111.123 202.016C111.603 201.152 112.251 200.48 113.067 200C113.895 199.52 114.819 199.28 115.839 199.28C117.375 199.28 118.467 199.79 119.115 200.81L119.385 199.388H121.635ZM115.227 207.2C115.863 207.2 116.427 207.05 116.919 206.75C117.423 206.438 117.819 206.012 118.107 205.472C118.395 204.92 118.539 204.296 118.539 203.6C118.539 202.844 118.317 202.256 117.873 201.836C117.429 201.404 116.805 201.188 116.001 201.188C115.365 201.188 114.795 201.344 114.291 201.656C113.799 201.956 113.409 202.382 113.121 202.934C112.833 203.474 112.689 204.092 112.689 204.788C112.689 205.544 112.911 206.138 113.355 206.57C113.799 206.99 114.423 207.2 115.227 207.2ZM129.816 199.28C130.896 199.28 131.748 199.562 132.372 200.126C133.008 200.69 133.326 201.488 133.326 202.52C133.326 202.808 133.284 203.192 133.2 203.672L132.138 209H129.888L130.932 203.726C130.98 203.486 131.004 203.24 131.004 202.988C131.004 201.824 130.362 201.242 129.078 201.242C128.25 201.242 127.566 201.476 127.026 201.944C126.486 202.4 126.12 203.09 125.928 204.014L124.92 209H122.67L124.578 199.388H126.72L126.504 200.45C127.368 199.67 128.472 199.28 129.816 199.28ZM138.161 205.778C138.137 205.97 138.125 206.108 138.125 206.192C138.125 206.912 138.503 207.272 139.259 207.272C139.727 207.272 140.147 207.146 140.519 206.894L140.915 208.55C140.303 208.934 139.529 209.126 138.593 209.126C137.765 209.126 137.099 208.898 136.595 208.442C136.091 207.986 135.839 207.356 135.839 206.552C135.839 206.288 135.863 206.036 135.911 205.796L136.829 201.26H135.263L135.623 199.46H137.189L137.621 197.264H139.871L139.421 199.46H142.013L141.653 201.26H139.061L138.161 205.778ZM158.9 199.388L156.992 209H154.85L155.048 208.01C154.208 208.754 153.164 209.126 151.916 209.126C151.124 209.126 150.404 208.958 149.756 208.622C149.12 208.286 148.616 207.8 148.244 207.164C147.872 206.516 147.686 205.76 147.686 204.896C147.686 203.828 147.92 202.868 148.388 202.016C148.868 201.152 149.516 200.48 150.332 200C151.16 199.52 152.084 199.28 153.104 199.28C154.64 199.28 155.732 199.79 156.38 200.81L156.65 199.388H158.9ZM152.492 207.2C153.128 207.2 153.692 207.05 154.184 206.75C154.688 206.438 155.084 206.012 155.372 205.472C155.66 204.92 155.804 204.296 155.804 203.6C155.804 202.844 155.582 202.256 155.138 201.836C154.694 201.404 154.07 201.188 153.266 201.188C152.63 201.188 152.06 201.344 151.556 201.656C151.064 201.956 150.674 202.382 150.386 202.934C150.098 203.474 149.954 204.092 149.954 204.788C149.954 205.544 150.176 206.138 150.62 206.57C151.064 206.99 151.688 207.2 152.492 207.2ZM167.082 199.28C168.162 199.28 169.014 199.562 169.638 200.126C170.274 200.69 170.592 201.488 170.592 202.52C170.592 202.808 170.55 203.192 170.466 203.672L169.404 209H167.154L168.198 203.726C168.246 203.486 168.27 203.24 168.27 202.988C168.27 201.824 167.628 201.242 166.344 201.242C165.516 201.242 164.832 201.476 164.292 201.944C163.752 202.4 163.386 203.09 163.194 204.014L162.186 209H159.936L161.844 199.388H163.986L163.77 200.45C164.634 199.67 165.738 199.28 167.082 199.28ZM184.406 195.644L181.742 209H179.6L179.798 208.01C178.934 208.754 177.896 209.126 176.684 209.126C175.892 209.126 175.172 208.958 174.524 208.622C173.888 208.286 173.384 207.8 173.012 207.164C172.64 206.516 172.454 205.76 172.454 204.896C172.454 203.816 172.688 202.85 173.156 201.998C173.624 201.146 174.266 200.48 175.082 200C175.91 199.52 176.834 199.28 177.854 199.28C178.61 199.28 179.264 199.406 179.816 199.658C180.38 199.91 180.818 200.282 181.13 200.774L182.156 195.644H184.406ZM177.26 207.2C177.884 207.2 178.448 207.05 178.952 206.75C179.456 206.438 179.846 206.012 180.122 205.472C180.41 204.92 180.554 204.296 180.554 203.6C180.554 202.844 180.332 202.256 179.888 201.836C179.444 201.404 178.82 201.188 178.016 201.188C177.392 201.188 176.828 201.344 176.324 201.656C175.82 201.956 175.424 202.382 175.136 202.934C174.86 203.474 174.722 204.092 174.722 204.788C174.722 205.544 174.944 206.138 175.388 206.57C175.832 206.99 176.456 207.2 177.26 207.2ZM192.954 209.126C192.138 209.126 191.358 209.03 190.614 208.838C189.882 208.634 189.312 208.382 188.904 208.082L189.84 206.354C190.236 206.642 190.734 206.87 191.334 207.038C191.934 207.206 192.552 207.29 193.188 207.29C193.908 207.29 194.448 207.194 194.808 207.002C195.18 206.798 195.366 206.51 195.366 206.138C195.366 205.85 195.21 205.64 194.898 205.508C194.598 205.376 194.118 205.238 193.458 205.094C192.774 204.962 192.21 204.824 191.766 204.68C191.334 204.524 190.956 204.278 190.632 203.942C190.32 203.594 190.164 203.12 190.164 202.52C190.164 201.524 190.578 200.738 191.406 200.162C192.246 199.574 193.356 199.28 194.736 199.28C195.396 199.28 196.038 199.358 196.662 199.514C197.286 199.658 197.796 199.856 198.192 200.108L197.364 201.836C196.968 201.584 196.518 201.398 196.014 201.278C195.522 201.158 195.024 201.098 194.52 201.098C193.812 201.098 193.272 201.206 192.9 201.422C192.54 201.638 192.36 201.92 192.36 202.268C192.36 202.58 192.516 202.808 192.828 202.952C193.152 203.084 193.65 203.222 194.322 203.366C194.994 203.498 195.546 203.642 195.978 203.798C196.41 203.942 196.782 204.182 197.094 204.518C197.406 204.854 197.562 205.31 197.562 205.886C197.562 206.918 197.142 207.716 196.302 208.28C195.462 208.844 194.346 209.126 192.954 209.126ZM203.748 209.126C202.8 209.126 201.966 208.952 201.246 208.604C200.538 208.244 199.992 207.746 199.608 207.11C199.224 206.474 199.032 205.736 199.032 204.896C199.032 203.828 199.278 202.868 199.77 202.016C200.262 201.164 200.94 200.498 201.804 200.018C202.68 199.526 203.676 199.28 204.792 199.28C205.764 199.28 206.598 199.472 207.294 199.856C208.002 200.228 208.548 200.786 208.932 201.53L207.006 202.52C206.562 201.632 205.764 201.188 204.612 201.188C203.976 201.188 203.406 201.344 202.902 201.656C202.41 201.956 202.02 202.382 201.732 202.934C201.444 203.474 201.3 204.092 201.3 204.788C201.3 205.544 201.522 206.138 201.966 206.57C202.41 206.99 203.04 207.2 203.856 207.2C204.408 207.2 204.906 207.092 205.35 206.876C205.794 206.648 206.172 206.312 206.484 205.868L208.14 206.984C207.696 207.656 207.084 208.184 206.304 208.568C205.524 208.94 204.672 209.126 203.748 209.126ZM220.564 199.388L218.656 209H216.514L216.712 208.01C215.872 208.754 214.828 209.126 213.58 209.126C212.788 209.126 212.068 208.958 211.42 208.622C210.784 208.286 210.28 207.8 209.908 207.164C209.536 206.516 209.35 205.76 209.35 204.896C209.35 203.828 209.584 202.868 210.052 202.016C210.532 201.152 211.18 200.48 211.996 200C212.824 199.52 213.748 199.28 214.768 199.28C216.304 199.28 217.396 199.79 218.044 200.81L218.314 199.388H220.564ZM214.156 207.2C214.792 207.2 215.356 207.05 215.848 206.75C216.352 206.438 216.748 206.012 217.036 205.472C217.324 204.92 217.468 204.296 217.468 203.6C217.468 202.844 217.246 202.256 216.802 201.836C216.358 201.404 215.734 201.188 214.93 201.188C214.294 201.188 213.724 201.344 213.22 201.656C212.728 201.956 212.338 202.382 212.05 202.934C211.762 203.474 211.618 204.092 211.618 204.788C211.618 205.544 211.84 206.138 212.284 206.57C212.728 206.99 213.352 207.2 214.156 207.2ZM224.264 195.644H226.514L223.85 209H221.6L224.264 195.644ZM236.865 203.492C236.865 203.96 236.817 204.416 236.721 204.86H229.089C229.125 206.432 230.049 207.218 231.861 207.218C232.413 207.218 232.929 207.134 233.409 206.966C233.889 206.786 234.297 206.54 234.633 206.228L235.569 207.794C235.077 208.238 234.483 208.574 233.787 208.802C233.103 209.018 232.383 209.126 231.627 209.126C230.667 209.126 229.827 208.952 229.107 208.604C228.399 208.256 227.853 207.764 227.469 207.128C227.085 206.48 226.893 205.736 226.893 204.896C226.893 203.828 227.127 202.868 227.595 202.016C228.075 201.152 228.735 200.48 229.575 200C230.427 199.52 231.381 199.28 232.437 199.28C233.781 199.28 234.855 199.658 235.659 200.414C236.463 201.158 236.865 202.184 236.865 203.492ZM232.329 201.08C231.573 201.08 230.925 201.284 230.385 201.692C229.857 202.1 229.491 202.658 229.287 203.366H234.795C234.807 202.646 234.585 202.088 234.129 201.692C233.685 201.284 233.085 201.08 232.329 201.08ZM254.388 199.388L252.75 207.542C252.39 209.306 251.724 210.59 250.752 211.394C249.78 212.21 248.466 212.618 246.81 212.618C244.926 212.618 243.426 212.18 242.31 211.304L243.48 209.612C243.852 209.936 244.344 210.194 244.956 210.386C245.58 210.59 246.246 210.692 246.954 210.692C247.986 210.692 248.778 210.464 249.33 210.008C249.882 209.552 250.248 208.856 250.428 207.92L250.518 207.452C249.654 208.196 248.604 208.568 247.368 208.568C246.54 208.568 245.796 208.406 245.136 208.082C244.488 207.758 243.978 207.296 243.606 206.696C243.246 206.096 243.066 205.394 243.066 204.59C243.066 203.606 243.3 202.712 243.768 201.908C244.236 201.092 244.884 200.45 245.712 199.982C246.552 199.514 247.488 199.28 248.52 199.28C249.276 199.28 249.954 199.424 250.554 199.712C251.154 199.988 251.61 200.408 251.922 200.972L252.228 199.388H254.388ZM247.872 206.66C248.508 206.66 249.072 206.522 249.564 206.246C250.068 205.958 250.458 205.568 250.734 205.076C251.022 204.572 251.166 204.008 251.166 203.384C251.166 202.7 250.944 202.166 250.5 201.782C250.056 201.386 249.438 201.188 248.646 201.188C248.01 201.188 247.44 201.332 246.936 201.62C246.432 201.896 246.036 202.286 245.748 202.79C245.472 203.282 245.334 203.84 245.334 204.464C245.334 205.136 245.556 205.67 246 206.066C246.456 206.462 247.08 206.66 247.872 206.66ZM259.218 200.63C259.638 200.138 260.148 199.79 260.748 199.586C261.36 199.382 262.086 199.28 262.926 199.28L262.512 201.422C262.308 201.386 262.122 201.368 261.954 201.368C260.118 201.368 259.008 202.334 258.624 204.266L257.67 209H255.42L257.328 199.388H259.47L259.218 200.63ZM272.865 203.492C272.865 203.96 272.817 204.416 272.721 204.86H265.089C265.125 206.432 266.049 207.218 267.861 207.218C268.413 207.218 268.929 207.134 269.409 206.966C269.889 206.786 270.297 206.54 270.633 206.228L271.569 207.794C271.077 208.238 270.483 208.574 269.787 208.802C269.103 209.018 268.383 209.126 267.627 209.126C266.667 209.126 265.827 208.952 265.107 208.604C264.399 208.256 263.853 207.764 263.469 207.128C263.085 206.48 262.893 205.736 262.893 204.896C262.893 203.828 263.127 202.868 263.595 202.016C264.075 201.152 264.735 200.48 265.575 200C266.427 199.52 267.381 199.28 268.437 199.28C269.781 199.28 270.855 199.658 271.659 200.414C272.463 201.158 272.865 202.184 272.865 203.492ZM268.329 201.08C267.573 201.08 266.925 201.284 266.385 201.692C265.857 202.1 265.491 202.658 265.287 203.366H270.795C270.807 202.646 270.585 202.088 270.129 201.692C269.685 201.284 269.085 201.08 268.329 201.08ZM285.252 199.388L283.344 209H281.202L281.4 208.01C280.56 208.754 279.516 209.126 278.268 209.126C277.476 209.126 276.756 208.958 276.108 208.622C275.472 208.286 274.968 207.8 274.596 207.164C274.224 206.516 274.038 205.76 274.038 204.896C274.038 203.828 274.272 202.868 274.74 202.016C275.22 201.152 275.868 200.48 276.684 200C277.512 199.52 278.436 199.28 279.456 199.28C280.992 199.28 282.084 199.79 282.732 200.81L283.002 199.388H285.252ZM278.844 207.2C279.48 207.2 280.044 207.05 280.536 206.75C281.04 206.438 281.436 206.012 281.724 205.472C282.012 204.92 282.156 204.296 282.156 203.6C282.156 202.844 281.934 202.256 281.49 201.836C281.046 201.404 280.422 201.188 279.618 201.188C278.982 201.188 278.412 201.344 277.908 201.656C277.416 201.956 277.026 202.382 276.738 202.934C276.45 203.474 276.306 204.092 276.306 204.788C276.306 205.544 276.528 206.138 276.972 206.57C277.416 206.99 278.04 207.2 278.844 207.2ZM289.456 205.778C289.432 205.97 289.42 206.108 289.42 206.192C289.42 206.912 289.798 207.272 290.554 207.272C291.022 207.272 291.442 207.146 291.814 206.894L292.21 208.55C291.598 208.934 290.824 209.126 289.888 209.126C289.06 209.126 288.394 208.898 287.89 208.442C287.386 207.986 287.134 207.356 287.134 206.552C287.134 206.288 287.158 206.036 287.206 205.796L288.124 201.26H286.558L286.918 199.46H288.484L288.916 197.264H291.166L290.716 199.46H293.308L292.948 201.26H290.356L289.456 205.778ZM303.662 203.492C303.662 203.96 303.614 204.416 303.518 204.86H295.886C295.922 206.432 296.846 207.218 298.658 207.218C299.21 207.218 299.726 207.134 300.206 206.966C300.686 206.786 301.094 206.54 301.43 206.228L302.366 207.794C301.874 208.238 301.28 208.574 300.584 208.802C299.9 209.018 299.18 209.126 298.424 209.126C297.464 209.126 296.624 208.952 295.904 208.604C295.196 208.256 294.65 207.764 294.266 207.128C293.882 206.48 293.69 205.736 293.69 204.896C293.69 203.828 293.924 202.868 294.392 202.016C294.872 201.152 295.532 200.48 296.372 200C297.224 199.52 298.178 199.28 299.234 199.28C300.578 199.28 301.652 199.658 302.456 200.414C303.26 201.158 303.662 202.184 303.662 203.492ZM299.126 201.08C298.37 201.08 297.722 201.284 297.182 201.692C296.654 202.1 296.288 202.658 296.084 203.366H301.592C301.604 202.646 301.382 202.088 300.926 201.692C300.482 201.284 299.882 201.08 299.126 201.08ZM308.543 200.63C308.963 200.138 309.473 199.79 310.073 199.586C310.685 199.382 311.411 199.28 312.251 199.28L311.837 201.422C311.633 201.386 311.447 201.368 311.279 201.368C309.443 201.368 308.333 202.334 307.949 204.266L306.995 209H304.745L306.653 199.388H308.795L308.543 200.63ZM324.424 199.28C325.504 199.28 326.356 199.562 326.98 200.126C327.616 200.69 327.934 201.494 327.934 202.538C327.934 202.826 327.892 203.204 327.808 203.672L326.746 209H324.496L325.54 203.726C325.588 203.486 325.612 203.24 325.612 202.988C325.612 201.824 324.97 201.242 323.686 201.242C322.858 201.242 322.174 201.476 321.634 201.944C321.094 202.4 320.728 203.09 320.536 204.014L319.528 209H317.278L319.942 195.644H322.192L321.256 200.342C322.084 199.634 323.14 199.28 324.424 199.28ZM339.75 203.492C339.75 203.96 339.702 204.416 339.606 204.86H331.974C332.01 206.432 332.934 207.218 334.746 207.218C335.298 207.218 335.814 207.134 336.294 206.966C336.774 206.786 337.182 206.54 337.518 206.228L338.454 207.794C337.962 208.238 337.368 208.574 336.672 208.802C335.988 209.018 335.268 209.126 334.512 209.126C333.552 209.126 332.712 208.952 331.992 208.604C331.284 208.256 330.738 207.764 330.354 207.128C329.97 206.48 329.778 205.736 329.778 204.896C329.778 203.828 330.012 202.868 330.48 202.016C330.96 201.152 331.62 200.48 332.46 200C333.312 199.52 334.266 199.28 335.322 199.28C336.666 199.28 337.74 199.658 338.544 200.414C339.348 201.158 339.75 202.184 339.75 203.492ZM335.214 201.08C334.458 201.08 333.81 201.284 333.27 201.692C332.742 202.1 332.376 202.658 332.172 203.366H337.68C337.692 202.646 337.47 202.088 337.014 201.692C336.57 201.284 335.97 201.08 335.214 201.08ZM342.741 199.388H344.991L343.083 209H340.833L342.741 199.388ZM344.379 197.804C343.983 197.804 343.659 197.684 343.407 197.444C343.155 197.192 343.029 196.892 343.029 196.544C343.029 196.136 343.167 195.794 343.443 195.518C343.731 195.242 344.103 195.104 344.559 195.104C344.955 195.104 345.279 195.224 345.531 195.464C345.783 195.692 345.909 195.974 345.909 196.31C345.909 196.754 345.765 197.114 345.477 197.39C345.201 197.666 344.835 197.804 344.379 197.804ZM357.502 199.388L355.864 207.542C355.504 209.306 354.838 210.59 353.866 211.394C352.894 212.21 351.58 212.618 349.924 212.618C348.04 212.618 346.54 212.18 345.424 211.304L346.594 209.612C346.966 209.936 347.458 210.194 348.07 210.386C348.694 210.59 349.36 210.692 350.068 210.692C351.1 210.692 351.892 210.464 352.444 210.008C352.996 209.552 353.362 208.856 353.542 207.92L353.632 207.452C352.768 208.196 351.718 208.568 350.482 208.568C349.654 208.568 348.91 208.406 348.25 208.082C347.602 207.758 347.092 207.296 346.72 206.696C346.36 206.096 346.18 205.394 346.18 204.59C346.18 203.606 346.414 202.712 346.882 201.908C347.35 201.092 347.998 200.45 348.826 199.982C349.666 199.514 350.602 199.28 351.634 199.28C352.39 199.28 353.068 199.424 353.668 199.712C354.268 199.988 354.724 200.408 355.036 200.972L355.342 199.388H357.502ZM350.986 206.66C351.622 206.66 352.186 206.522 352.678 206.246C353.182 205.958 353.572 205.568 353.848 205.076C354.136 204.572 354.28 204.008 354.28 203.384C354.28 202.7 354.058 202.166 353.614 201.782C353.17 201.386 352.552 201.188 351.76 201.188C351.124 201.188 350.554 201.332 350.05 201.62C349.546 201.896 349.15 202.286 348.862 202.79C348.586 203.282 348.448 203.84 348.448 204.464C348.448 205.136 348.67 205.67 349.114 206.066C349.57 206.462 350.194 206.66 350.986 206.66ZM365.68 199.28C366.76 199.28 367.612 199.562 368.236 200.126C368.872 200.69 369.19 201.494 369.19 202.538C369.19 202.826 369.148 203.204 369.064 203.672L368.002 209H365.752L366.796 203.726C366.844 203.486 366.868 203.24 366.868 202.988C366.868 201.824 366.226 201.242 364.942 201.242C364.114 201.242 363.43 201.476 362.89 201.944C362.35 202.4 361.984 203.09 361.792 204.014L360.784 209H358.534L361.198 195.644H363.448L362.512 200.342C363.34 199.634 364.396 199.28 365.68 199.28ZM374.024 205.778C374 205.97 373.988 206.108 373.988 206.192C373.988 206.912 374.366 207.272 375.122 207.272C375.59 207.272 376.01 207.146 376.382 206.894L376.778 208.55C376.166 208.934 375.392 209.126 374.456 209.126C373.628 209.126 372.962 208.898 372.458 208.442C371.954 207.986 371.702 207.356 371.702 206.552C371.702 206.288 371.726 206.036 371.774 205.796L372.692 201.26H371.126L371.486 199.46H373.052L373.484 197.264H375.734L375.284 199.46H377.876L377.516 201.26H374.924L374.024 205.778ZM381.761 209.126C380.945 209.126 380.165 209.03 379.421 208.838C378.689 208.634 378.119 208.382 377.711 208.082L378.647 206.354C379.043 206.642 379.541 206.87 380.141 207.038C380.741 207.206 381.359 207.29 381.995 207.29C382.715 207.29 383.255 207.194 383.615 207.002C383.987 206.798 384.173 206.51 384.173 206.138C384.173 205.85 384.017 205.64 383.705 205.508C383.405 205.376 382.925 205.238 382.265 205.094C381.581 204.962 381.017 204.824 380.573 204.68C380.141 204.524 379.763 204.278 379.439 203.942C379.127 203.594 378.971 203.12 378.971 202.52C378.971 201.524 379.385 200.738 380.213 200.162C381.053 199.574 382.163 199.28 383.543 199.28C384.203 199.28 384.845 199.358 385.469 199.514C386.093 199.658 386.603 199.856 386.999 200.108L386.171 201.836C385.775 201.584 385.325 201.398 384.821 201.278C384.329 201.158 383.831 201.098 383.327 201.098C382.619 201.098 382.079 201.206 381.707 201.422C381.347 201.638 381.167 201.92 381.167 202.268C381.167 202.58 381.323 202.808 381.635 202.952C381.959 203.084 382.457 203.222 383.129 203.366C383.801 203.498 384.353 203.642 384.785 203.798C385.217 203.942 385.589 204.182 385.901 204.518C386.213 204.854 386.369 205.31 386.369 205.886C386.369 206.918 385.949 207.716 385.109 208.28C384.269 208.844 383.153 209.126 381.761 209.126ZM390.833 204.824C390.917 204.356 391.073 203.948 391.301 203.6C391.541 203.24 391.799 202.94 392.075 202.7C392.351 202.46 392.711 202.178 393.155 201.854C393.731 201.434 394.157 201.068 394.433 200.756C394.721 200.444 394.865 200.06 394.865 199.604C394.865 199.16 394.685 198.812 394.325 198.56C393.977 198.296 393.473 198.164 392.813 198.164C391.529 198.164 390.485 198.632 389.681 199.568L388.187 198.326C388.715 197.654 389.411 197.138 390.275 196.778C391.139 196.406 392.123 196.22 393.227 196.22C394.451 196.22 395.423 196.49 396.143 197.03C396.875 197.558 397.241 198.278 397.241 199.19C397.241 199.754 397.139 200.246 396.935 200.666C396.731 201.074 396.479 201.416 396.179 201.692C395.891 201.968 395.501 202.28 395.009 202.628C394.457 203.024 394.025 203.378 393.713 203.69C393.413 204.002 393.209 204.38 393.101 204.824H390.833ZM391.319 209.126C390.923 209.126 390.593 209 390.329 208.748C390.077 208.496 389.951 208.19 389.951 207.83C389.951 207.398 390.095 207.044 390.383 206.768C390.671 206.48 391.025 206.336 391.445 206.336C391.841 206.336 392.165 206.462 392.417 206.714C392.681 206.954 392.813 207.26 392.813 207.632C392.813 208.052 392.669 208.406 392.381 208.694C392.093 208.982 391.739 209.126 391.319 209.126Z" fill="white"/>
<path d="M257.24 114.885H260.552V117.765H257.336V127.509H253.592V117.765H251.6V114.885H253.592V114.309C253.592 112.837 254.024 111.669 254.888 110.805C255.768 109.941 257 109.509 258.584 109.509C259.144 109.509 259.672 109.573 260.168 109.701C260.68 109.813 261.104 109.981 261.44 110.205L260.456 112.917C260.024 112.613 259.52 112.461 258.944 112.461C257.808 112.461 257.24 113.085 257.24 114.333V114.885ZM268.397 127.701C267.037 127.701 265.813 127.421 264.725 126.861C263.653 126.285 262.813 125.493 262.205 124.485C261.597 123.477 261.293 122.333 261.293 121.053C261.293 119.773 261.597 118.629 262.205 117.621C262.813 116.613 263.653 115.829 264.725 115.269C265.813 114.693 267.037 114.405 268.397 114.405C269.757 114.405 270.973 114.693 272.045 115.269C273.117 115.829 273.957 116.613 274.565 117.621C275.173 118.629 275.477 119.773 275.477 121.053C275.477 122.333 275.173 123.477 274.565 124.485C273.957 125.493 273.117 126.285 272.045 126.861C270.973 127.421 269.757 127.701 268.397 127.701ZM268.397 124.629C269.357 124.629 270.141 124.309 270.749 123.669C271.373 123.013 271.685 122.141 271.685 121.053C271.685 119.965 271.373 119.101 270.749 118.461C270.141 117.805 269.357 117.477 268.397 117.477C267.437 117.477 266.645 117.805 266.021 118.461C265.397 119.101 265.085 119.965 265.085 121.053C265.085 122.141 265.397 123.013 266.021 123.669C266.645 124.309 267.437 124.629 268.397 124.629ZM281.556 116.301C282.004 115.677 282.604 115.205 283.356 114.885C284.124 114.565 285.004 114.405 285.996 114.405V117.861C285.58 117.829 285.3 117.813 285.156 117.813C284.084 117.813 283.244 118.117 282.636 118.725C282.028 119.317 281.724 120.213 281.724 121.413V127.509H277.98V114.597H281.556V116.301ZM307.929 114.597L302.097 128.301C301.505 129.789 300.769 130.837 299.889 131.445C299.025 132.053 297.977 132.357 296.745 132.357C296.073 132.357 295.409 132.253 294.753 132.045C294.097 131.837 293.561 131.549 293.145 131.181L294.513 128.517C294.801 128.773 295.129 128.973 295.497 129.117C295.881 129.261 296.257 129.333 296.625 129.333C297.137 129.333 297.553 129.205 297.873 128.949C298.193 128.709 298.481 128.301 298.737 127.725L298.785 127.605L293.193 114.597H297.057L300.681 123.357L304.329 114.597H307.929ZM315.249 127.701C313.889 127.701 312.665 127.421 311.577 126.861C310.505 126.285 309.665 125.493 309.057 124.485C308.449 123.477 308.145 122.333 308.145 121.053C308.145 119.773 308.449 118.629 309.057 117.621C309.665 116.613 310.505 115.829 311.577 115.269C312.665 114.693 313.889 114.405 315.249 114.405C316.609 114.405 317.825 114.693 318.897 115.269C319.969 115.829 320.809 116.613 321.417 117.621C322.025 118.629 322.329 119.773 322.329 121.053C322.329 122.333 322.025 123.477 321.417 124.485C320.809 125.493 319.969 126.285 318.897 126.861C317.825 127.421 316.609 127.701 315.249 127.701ZM315.249 124.629C316.209 124.629 316.993 124.309 317.601 123.669C318.225 123.013 318.537 122.141 318.537 121.053C318.537 119.965 318.225 119.101 317.601 118.461C316.993 117.805 316.209 117.477 315.249 117.477C314.289 117.477 313.497 117.805 312.873 118.461C312.249 119.101 311.937 119.965 311.937 121.053C311.937 122.141 312.249 123.013 312.873 123.669C313.497 124.309 314.289 124.629 315.249 124.629ZM337.84 114.597V127.509H334.288V125.973C333.792 126.533 333.2 126.965 332.512 127.269C331.824 127.557 331.08 127.701 330.28 127.701C328.584 127.701 327.24 127.213 326.248 126.237C325.256 125.261 324.76 123.813 324.76 121.893V114.597H328.504V121.341C328.504 123.421 329.376 124.461 331.12 124.461C332.016 124.461 332.736 124.173 333.28 123.597C333.824 123.005 334.096 122.133 334.096 120.981V114.597H337.84ZM344.884 116.301C345.332 115.677 345.932 115.205 346.684 114.885C347.452 114.565 348.332 114.405 349.324 114.405V117.861C348.908 117.829 348.628 117.813 348.484 117.813C347.412 117.813 346.572 118.117 345.964 118.725C345.356 119.317 345.052 120.213 345.052 121.413V127.509H341.308V114.597H344.884V116.301ZM364.681 127.701C363.305 127.701 362.065 127.421 360.961 126.861C359.873 126.285 359.017 125.493 358.393 124.485C357.785 123.477 357.481 122.333 357.481 121.053C357.481 119.773 357.785 118.629 358.393 117.621C359.017 116.613 359.873 115.829 360.961 115.269C362.065 114.693 363.305 114.405 364.681 114.405C366.041 114.405 367.225 114.693 368.233 115.269C369.257 115.829 370.001 116.637 370.465 117.693L367.561 119.253C366.889 118.069 365.921 117.477 364.657 117.477C363.681 117.477 362.873 117.797 362.233 118.437C361.593 119.077 361.273 119.949 361.273 121.053C361.273 122.157 361.593 123.029 362.233 123.669C362.873 124.309 363.681 124.629 364.657 124.629C365.937 124.629 366.905 124.037 367.561 122.853L370.465 124.437C370.001 125.461 369.257 126.261 368.233 126.837C367.225 127.413 366.041 127.701 364.681 127.701ZM378.601 127.701C377.241 127.701 376.017 127.421 374.929 126.861C373.857 126.285 373.017 125.493 372.409 124.485C371.801 123.477 371.497 122.333 371.497 121.053C371.497 119.773 371.801 118.629 372.409 117.621C373.017 116.613 373.857 115.829 374.929 115.269C376.017 114.693 377.241 114.405 378.601 114.405C379.961 114.405 381.177 114.693 382.249 115.269C383.321 115.829 384.161 116.613 384.769 117.621C385.377 118.629 385.681 119.773 385.681 121.053C385.681 122.333 385.377 123.477 384.769 124.485C384.161 125.493 383.321 126.285 382.249 126.861C381.177 127.421 379.961 127.701 378.601 127.701ZM378.601 124.629C379.561 124.629 380.345 124.309 380.953 123.669C381.577 123.013 381.889 122.141 381.889 121.053C381.889 119.965 381.577 119.101 380.953 118.461C380.345 117.805 379.561 117.477 378.601 117.477C377.641 117.477 376.849 117.805 376.225 118.461C375.601 119.101 375.289 119.965 375.289 121.053C375.289 122.141 375.601 123.013 376.225 123.669C376.849 124.309 377.641 124.629 378.601 124.629ZM404.719 114.405C406.335 114.405 407.615 114.885 408.559 115.845C409.519 116.789 409.999 118.213 409.999 120.117V127.509H406.255V120.693C406.255 119.669 406.039 118.909 405.607 118.413C405.191 117.901 404.591 117.645 403.807 117.645C402.927 117.645 402.231 117.933 401.719 118.509C401.207 119.069 400.951 119.909 400.951 121.029V127.509H397.207V120.693C397.207 118.661 396.391 117.645 394.759 117.645C393.895 117.645 393.207 117.933 392.695 118.509C392.183 119.069 391.927 119.909 391.927 121.029V127.509H388.183V114.597H391.759V116.085C392.239 115.541 392.823 115.125 393.511 114.837C394.215 114.549 394.983 114.405 395.815 114.405C396.727 114.405 397.551 114.589 398.287 114.957C399.023 115.309 399.615 115.829 400.063 116.517C400.591 115.845 401.255 115.325 402.055 114.957C402.871 114.589 403.759 114.405 404.719 114.405ZM420.987 114.405C422.187 114.405 423.275 114.685 424.251 115.245C425.243 115.789 426.019 116.565 426.579 117.573C427.139 118.565 427.419 119.725 427.419 121.053C427.419 122.381 427.139 123.549 426.579 124.557C426.019 125.549 425.243 126.325 424.251 126.885C423.275 127.429 422.187 127.701 420.987 127.701C419.339 127.701 418.043 127.181 417.099 126.141V132.165H413.355V114.597H416.931V116.085C417.859 114.965 419.211 114.405 420.987 114.405ZM420.339 124.629C421.299 124.629 422.083 124.309 422.691 123.669C423.315 123.013 423.627 122.141 423.627 121.053C423.627 119.965 423.315 119.101 422.691 118.461C422.083 117.805 421.299 117.477 420.339 117.477C419.379 117.477 418.587 117.805 417.963 118.461C417.355 119.101 417.051 119.965 417.051 121.053C417.051 122.141 417.355 123.013 417.963 123.669C418.587 124.309 419.379 124.629 420.339 124.629ZM434.922 114.405C436.922 114.405 438.458 114.885 439.53 115.845C440.602 116.789 441.138 118.221 441.138 120.141V127.509H437.634V125.901C436.93 127.101 435.618 127.701 433.698 127.701C432.706 127.701 431.842 127.533 431.106 127.197C430.386 126.861 429.834 126.397 429.45 125.805C429.066 125.213 428.874 124.541 428.874 123.789C428.874 122.589 429.322 121.645 430.218 120.957C431.13 120.269 432.53 119.925 434.418 119.925H437.394C437.394 119.109 437.146 118.485 436.65 118.053C436.154 117.605 435.41 117.381 434.418 117.381C433.73 117.381 433.05 117.493 432.378 117.717C431.722 117.925 431.162 118.213 430.698 118.581L429.354 115.965C430.058 115.469 430.898 115.085 431.874 114.813C432.866 114.541 433.882 114.405 434.922 114.405ZM434.634 125.181C435.274 125.181 435.842 125.037 436.338 124.749C436.834 124.445 437.186 124.005 437.394 123.429V122.109H434.826C433.29 122.109 432.522 122.613 432.522 123.621C432.522 124.101 432.706 124.485 433.074 124.773C433.458 125.045 433.978 125.181 434.634 125.181ZM452.375 114.405C453.975 114.405 455.263 114.885 456.239 115.845C457.231 116.805 457.727 118.229 457.727 120.117V127.509H453.983V120.693C453.983 119.669 453.759 118.909 453.311 118.413C452.863 117.901 452.215 117.645 451.367 117.645C450.423 117.645 449.671 117.941 449.111 118.533C448.551 119.109 448.271 119.973 448.271 121.125V127.509H444.527V114.597H448.103V116.109C448.599 115.565 449.215 115.149 449.951 114.861C450.687 114.557 451.495 114.405 452.375 114.405ZM473.702 114.597L467.87 128.301C467.278 129.789 466.542 130.837 465.662 131.445C464.798 132.053 463.75 132.357 462.518 132.357C461.846 132.357 461.182 132.253 460.526 132.045C459.87 131.837 459.334 131.549 458.918 131.181L460.286 128.517C460.574 128.773 460.902 128.973 461.27 129.117C461.654 129.261 462.03 129.333 462.398 129.333C462.91 129.333 463.326 129.205 463.646 128.949C463.966 128.709 464.254 128.301 464.51 127.725L464.558 127.605L458.966 114.597H462.83L466.454 123.357L470.102 114.597H473.702Z" fill="#7387C3"/>
<path d="M26.48 27.488C27.616 26.336 28.424 25.432 28.904 24.776C29.384 24.12 29.624 23.456 29.624 22.784C29.624 22.112 29.368 21.544 28.856 21.08C28.344 20.6 27.696 20.36 26.912 20.36C25.536 20.36 24.392 21.064 23.48 22.472L21.2 21.152C21.936 20.048 22.744 19.216 23.624 18.656C24.52 18.096 25.664 17.816 27.056 17.816C28.464 17.816 29.696 18.264 30.752 19.16C31.808 20.04 32.336 21.248 32.336 22.784C32.336 23.648 32.112 24.472 31.664 25.256C31.216 26.04 30.392 27.048 29.192 28.28L25.256 32.288H32.864V35H21.392V32.6L26.48 27.488Z" fill="white"/>
</svg>
