<svg width="1279" height="239" viewBox="0 0 1279 239" fill="none" xmlns="http://www.w3.org/2000/svg">
<rect y="17.0928" width="1279.06" height="207" fill="#45537C"/>
<path d="M226.64 57.7368V62.0928H224.858V57.7008L219.854 49.4928H221.78L225.812 56.1348L229.862 49.4928H231.644L226.64 57.7368ZM242.403 60.5268V62.0928H233.259V49.4928H242.151V51.0588H235.059V54.9288H241.377V56.4588H235.059V60.5268H242.403ZM253.346 58.9428H246.65L245.264 62.0928H243.41L249.116 49.4928H250.898L256.622 62.0928H254.732L253.346 58.9428ZM252.716 57.5028L249.998 51.3288L247.28 57.5028H252.716ZM266.925 62.0928L264.207 58.2228C263.871 58.2468 263.607 58.2588 263.415 58.2588H260.301V62.0928H258.501V49.4928H263.415C265.047 49.4928 266.331 49.8828 267.267 50.6628C268.203 51.4428 268.671 52.5168 268.671 53.8848C268.671 54.8568 268.431 55.6848 267.951 56.3688C267.471 57.0528 266.787 57.5508 265.899 57.8628L268.887 62.0928H266.925ZM263.361 56.7288C264.501 56.7288 265.371 56.4828 265.971 55.9908C266.571 55.4988 266.871 54.7968 266.871 53.8848C266.871 52.9728 266.571 52.2768 265.971 51.7968C265.371 51.3048 264.501 51.0588 263.361 51.0588H260.301V56.7288H263.361ZM275.251 62.2368C274.303 62.2368 273.385 62.0928 272.497 61.8048C271.621 61.5048 270.931 61.1208 270.427 60.6528L271.093 59.2488C271.573 59.6808 272.185 60.0348 272.929 60.3108C273.685 60.5748 274.459 60.7068 275.251 60.7068C276.295 60.7068 277.075 60.5328 277.591 60.1848C278.107 59.8248 278.365 59.3508 278.365 58.7628C278.365 58.3308 278.221 57.9828 277.933 57.7188C277.657 57.4428 277.309 57.2328 276.889 57.0888C276.481 56.9448 275.899 56.7828 275.143 56.6028C274.195 56.3748 273.427 56.1468 272.839 55.9188C272.263 55.6908 271.765 55.3428 271.345 54.8748C270.937 54.3948 270.733 53.7528 270.733 52.9488C270.733 52.2768 270.907 51.6708 271.255 51.1308C271.615 50.5908 272.155 50.1588 272.875 49.8348C273.595 49.5108 274.489 49.3488 275.557 49.3488C276.301 49.3488 277.033 49.4448 277.753 49.6368C278.473 49.8288 279.091 50.1048 279.607 50.4648L279.013 51.9048C278.485 51.5688 277.921 51.3168 277.321 51.1488C276.721 50.9688 276.133 50.8788 275.557 50.8788C274.537 50.8788 273.769 51.0648 273.253 51.4368C272.749 51.8088 272.497 52.2888 272.497 52.8768C272.497 53.3088 272.641 53.6628 272.929 53.9388C273.217 54.2028 273.571 54.4128 273.991 54.5688C274.423 54.7128 275.005 54.8688 275.737 55.0368C276.685 55.2648 277.447 55.4928 278.023 55.7208C278.599 55.9488 279.091 56.2968 279.499 56.7648C279.919 57.2328 280.129 57.8628 280.129 58.6548C280.129 59.3148 279.949 59.9208 279.589 60.4728C279.229 61.0128 278.683 61.4448 277.951 61.7688C277.219 62.0808 276.319 62.2368 275.251 62.2368ZM293.281 62.2368C292.009 62.2368 290.863 61.9608 289.843 61.4088C288.823 60.8448 288.019 60.0708 287.431 59.0868C286.855 58.1028 286.567 57.0048 286.567 55.7928C286.567 54.5808 286.855 53.4828 287.431 52.4988C288.019 51.5148 288.823 50.7468 289.843 50.1948C290.863 49.6308 292.009 49.3488 293.281 49.3488C294.541 49.3488 295.681 49.6308 296.701 50.1948C297.721 50.7468 298.519 51.5148 299.095 52.4988C299.671 53.4708 299.959 54.5688 299.959 55.7928C299.959 57.0168 299.671 58.1208 299.095 59.1048C298.519 60.0768 297.721 60.8448 296.701 61.4088C295.681 61.9608 294.541 62.2368 293.281 62.2368ZM293.281 60.6348C294.205 60.6348 295.033 60.4248 295.765 60.0048C296.509 59.5848 297.091 59.0088 297.511 58.2768C297.943 57.5328 298.159 56.7048 298.159 55.7928C298.159 54.8808 297.943 54.0588 297.511 53.3268C297.091 52.5828 296.509 52.0008 295.765 51.5808C295.033 51.1608 294.205 50.9508 293.281 50.9508C292.357 50.9508 291.517 51.1608 290.761 51.5808C290.017 52.0008 289.429 52.5828 288.997 53.3268C288.577 54.0588 288.367 54.8808 288.367 55.7928C288.367 56.7048 288.577 57.5328 288.997 58.2768C289.429 59.0088 290.017 59.5848 290.761 60.0048C291.517 60.4248 292.357 60.6348 293.281 60.6348ZM304.51 51.0588V55.4508H310.828V56.9988H304.51V62.0928H302.71V49.4928H311.602V51.0588H304.51ZM230.96 82.5268V84.0928H221.816V71.4928H230.708V73.0588H223.616V76.9288H229.934V78.4588H223.616V82.5268H230.96ZM241.654 84.0928L237.874 78.8908L234.148 84.0928H232.078L236.812 77.6308L232.366 71.4928H234.418L237.946 76.3348L241.438 71.4928H243.4L238.954 77.5768L243.724 84.0928H241.654ZM250.337 71.4928C251.969 71.4928 253.253 71.8828 254.189 72.6628C255.125 73.4428 255.593 74.5168 255.593 75.8848C255.593 77.2528 255.125 78.3268 254.189 79.1068C253.253 79.8868 251.969 80.2768 250.337 80.2768H247.223V84.0928H245.423V71.4928H250.337ZM250.283 78.7108C251.423 78.7108 252.293 78.4708 252.893 77.9908C253.493 77.4988 253.793 76.7968 253.793 75.8848C253.793 74.9728 253.493 74.2768 252.893 73.7968C252.293 73.3048 251.423 73.0588 250.283 73.0588H247.223V78.7108H250.283ZM267.382 82.5268V84.0928H258.238V71.4928H267.13V73.0588H260.038V76.9288H266.356V78.4588H260.038V82.5268H267.382ZM278.72 84.0928L276.002 80.2228C275.666 80.2468 275.402 80.2588 275.21 80.2588H272.096V84.0928H270.296V71.4928H275.21C276.842 71.4928 278.126 71.8828 279.062 72.6628C279.998 73.4428 280.466 74.5168 280.466 75.8848C280.466 76.8568 280.226 77.6848 279.746 78.3688C279.266 79.0528 278.582 79.5508 277.694 79.8628L280.682 84.0928H278.72ZM275.156 78.7288C276.296 78.7288 277.166 78.4828 277.766 77.9908C278.366 77.4988 278.666 76.7968 278.666 75.8848C278.666 74.9728 278.366 74.2768 277.766 73.7968C277.166 73.3048 276.296 73.0588 275.156 73.0588H272.096V78.7288H275.156ZM283.374 71.4928H285.174V84.0928H283.374V71.4928ZM298.091 82.5268V84.0928H288.947V71.4928H297.839V73.0588H290.747V76.9288H297.065V78.4588H290.747V82.5268H298.091ZM311.841 71.4928V84.0928H310.365L302.805 74.6968V84.0928H301.005V71.4928H302.481L310.041 80.8888V71.4928H311.841ZM321.247 84.2368C319.987 84.2368 318.847 83.9608 317.827 83.4088C316.819 82.8448 316.027 82.0768 315.451 81.1048C314.875 80.1208 314.587 79.0168 314.587 77.7928C314.587 76.5688 314.875 75.4708 315.451 74.4988C316.027 73.5148 316.825 72.7468 317.845 72.1948C318.865 71.6308 320.005 71.3488 321.265 71.3488C322.249 71.3488 323.149 71.5168 323.965 71.8528C324.781 72.1768 325.477 72.6628 326.053 73.3108L324.883 74.4448C323.935 73.4488 322.753 72.9508 321.337 72.9508C320.401 72.9508 319.555 73.1608 318.799 73.5808C318.043 74.0008 317.449 74.5828 317.017 75.3268C316.597 76.0588 316.387 76.8808 316.387 77.7928C316.387 78.7048 316.597 79.5328 317.017 80.2768C317.449 81.0088 318.043 81.5848 318.799 82.0048C319.555 82.4248 320.401 82.6348 321.337 82.6348C322.741 82.6348 323.923 82.1308 324.883 81.1228L326.053 82.2568C325.477 82.9048 324.775 83.3968 323.947 83.7328C323.131 84.0688 322.231 84.2368 321.247 84.2368ZM337.764 82.5268V84.0928H328.62V71.4928H337.512V73.0588H330.42V76.9288H336.738V78.4588H330.42V82.5268H337.764Z" fill="white"/>
<path d="M494.927 158.463C494.519 158.943 494.045 159.309 493.505 159.561C492.965 159.813 492.383 159.939 491.759 159.939C490.967 159.939 490.223 159.747 489.527 159.363C488.843 158.991 488.057 158.349 487.169 157.437C485.981 157.377 484.907 157.059 483.947 156.483C482.999 155.907 482.255 155.145 481.715 154.197C481.187 153.237 480.923 152.175 480.923 151.011C480.923 149.799 481.211 148.701 481.787 147.717C482.375 146.733 483.179 145.965 484.199 145.413C485.219 144.849 486.365 144.567 487.637 144.567C488.897 144.567 490.037 144.849 491.057 145.413C492.077 145.965 492.875 146.733 493.451 147.717C494.027 148.689 494.315 149.787 494.315 151.011C494.315 152.043 494.105 152.991 493.685 153.855C493.277 154.719 492.695 155.445 491.939 156.033C491.195 156.621 490.337 157.029 489.365 157.257C489.785 157.701 490.187 158.019 490.571 158.211C490.967 158.415 491.369 158.517 491.777 158.517C492.665 158.517 493.433 158.157 494.081 157.437L494.927 158.463ZM482.723 151.011C482.723 151.923 482.933 152.751 483.353 153.495C483.785 154.227 484.373 154.803 485.117 155.223C485.873 155.643 486.713 155.853 487.637 155.853C488.549 155.853 489.377 155.643 490.121 155.223C490.865 154.803 491.447 154.227 491.867 153.495C492.299 152.751 492.515 151.923 492.515 151.011C492.515 150.099 492.299 149.277 491.867 148.545C491.447 147.801 490.865 147.219 490.121 146.799C489.377 146.379 488.549 146.169 487.637 146.169C486.713 146.169 485.873 146.379 485.117 146.799C484.373 147.219 483.785 147.801 483.353 148.545C482.933 149.277 482.723 150.099 482.723 151.011ZM502.286 157.455C500.606 157.455 499.298 156.975 498.362 156.015C497.426 155.055 496.958 153.675 496.958 151.875V144.711H498.758V151.803C498.758 154.503 499.94 155.853 502.304 155.853C503.456 155.853 504.338 155.523 504.95 154.863C505.562 154.191 505.868 153.171 505.868 151.803V144.711H507.614V151.875C507.614 153.687 507.146 155.073 506.21 156.033C505.274 156.981 503.966 157.455 502.286 157.455ZM519.068 154.161H512.372L510.986 157.311H509.132L514.838 144.711H516.62L522.344 157.311H520.454L519.068 154.161ZM518.438 152.721L515.72 146.547L513.002 152.721H518.438ZM524.224 144.711H526.024V155.745H532.846V157.311H524.224V144.711ZM534.911 144.711H536.711V157.311H534.911V144.711ZM542.284 146.277V150.669H548.602V152.217H542.284V157.311H540.484V144.711H549.376V146.277H542.284ZM551.91 144.711H553.71V157.311H551.91V144.711ZM566.626 155.745V157.311H557.482V144.711H566.374V146.277H559.282V150.147H565.6V151.677H559.282V155.745H566.626ZM569.54 144.711H574.85C576.182 144.711 577.364 144.975 578.396 145.503C579.428 146.031 580.226 146.775 580.79 147.735C581.366 148.683 581.654 149.775 581.654 151.011C581.654 152.247 581.366 153.345 580.79 154.305C580.226 155.253 579.428 155.991 578.396 156.519C577.364 157.047 576.182 157.311 574.85 157.311H569.54V144.711ZM574.742 155.745C575.762 155.745 576.656 155.547 577.424 155.151C578.204 154.755 578.804 154.203 579.224 153.495C579.644 152.775 579.854 151.947 579.854 151.011C579.854 150.075 579.644 149.253 579.224 148.545C578.804 147.825 578.204 147.267 577.424 146.871C576.656 146.475 575.762 146.277 574.742 146.277H571.34V155.745H574.742ZM491.093 177.745V179.311H481.949V166.711H490.841V168.277H483.749V172.147H490.067V173.677H483.749V177.745H491.093ZM501.787 179.311L498.007 174.109L494.281 179.311H492.211L496.945 172.849L492.499 166.711H494.551L498.079 171.553L501.571 166.711H503.533L499.087 172.795L503.857 179.311H501.787ZM510.47 166.711C512.102 166.711 513.386 167.101 514.322 167.881C515.258 168.661 515.726 169.735 515.726 171.103C515.726 172.471 515.258 173.545 514.322 174.325C513.386 175.105 512.102 175.495 510.47 175.495H507.356V179.311H505.556V166.711H510.47ZM510.416 173.929C511.556 173.929 512.426 173.689 513.026 173.209C513.626 172.717 513.926 172.015 513.926 171.103C513.926 170.191 513.626 169.495 513.026 169.015C512.426 168.523 511.556 168.277 510.416 168.277H507.356V173.929H510.416ZM527.514 177.745V179.311H518.37V166.711H527.262V168.277H520.17V172.147H526.488V173.677H520.17V177.745H527.514ZM538.853 179.311L536.135 175.441C535.799 175.465 535.535 175.477 535.343 175.477H532.229V179.311H530.429V166.711H535.343C536.975 166.711 538.259 167.101 539.195 167.881C540.131 168.661 540.599 169.735 540.599 171.103C540.599 172.075 540.359 172.903 539.879 173.587C539.399 174.271 538.715 174.769 537.827 175.081L540.815 179.311H538.853ZM535.289 173.947C536.429 173.947 537.299 173.701 537.899 173.209C538.499 172.717 538.799 172.015 538.799 171.103C538.799 170.191 538.499 169.495 537.899 169.015C537.299 168.523 536.429 168.277 535.289 168.277H532.229V173.947H535.289ZM545.833 168.277H541.513V166.711H551.935V168.277H547.615V179.311H545.833V168.277ZM557.41 179.455C556.462 179.455 555.544 179.311 554.656 179.023C553.78 178.723 553.09 178.339 552.586 177.871L553.252 176.467C553.732 176.899 554.344 177.253 555.088 177.529C555.844 177.793 556.618 177.925 557.41 177.925C558.454 177.925 559.234 177.751 559.75 177.403C560.266 177.043 560.524 176.569 560.524 175.981C560.524 175.549 560.38 175.201 560.092 174.937C559.816 174.661 559.468 174.451 559.048 174.307C558.64 174.163 558.058 174.001 557.302 173.821C556.354 173.593 555.586 173.365 554.998 173.137C554.422 172.909 553.924 172.561 553.504 172.093C553.096 171.613 552.892 170.971 552.892 170.167C552.892 169.495 553.066 168.889 553.414 168.349C553.774 167.809 554.314 167.377 555.034 167.053C555.754 166.729 556.648 166.567 557.716 166.567C558.46 166.567 559.192 166.663 559.912 166.855C560.632 167.047 561.25 167.323 561.766 167.683L561.172 169.123C560.644 168.787 560.08 168.535 559.48 168.367C558.88 168.187 558.292 168.097 557.716 168.097C556.696 168.097 555.928 168.283 555.412 168.655C554.908 169.027 554.656 169.507 554.656 170.095C554.656 170.527 554.8 170.881 555.088 171.157C555.376 171.421 555.73 171.631 556.15 171.787C556.582 171.931 557.164 172.087 557.896 172.255C558.844 172.483 559.606 172.711 560.182 172.939C560.758 173.167 561.25 173.515 561.658 173.983C562.078 174.451 562.288 175.081 562.288 175.873C562.288 176.533 562.108 177.139 561.748 177.691C561.388 178.231 560.842 178.663 560.11 178.987C559.378 179.299 558.478 179.455 557.41 179.455Z" fill="white"/>
<path d="M738.874 68.6547C737.614 68.6547 736.474 68.3787 735.454 67.8267C734.446 67.2627 733.654 66.4947 733.078 65.5227C732.502 64.5387 732.214 63.4347 732.214 62.2107C732.214 60.9867 732.502 59.8887 733.078 58.9167C733.654 57.9327 734.452 57.1647 735.472 56.6127C736.492 56.0487 737.632 55.7667 738.892 55.7667C739.876 55.7667 740.776 55.9347 741.592 56.2707C742.408 56.5947 743.104 57.0807 743.68 57.7287L742.51 58.8627C741.562 57.8667 740.38 57.3687 738.964 57.3687C738.028 57.3687 737.182 57.5787 736.426 57.9987C735.67 58.4187 735.076 59.0007 734.644 59.7447C734.224 60.4767 734.014 61.2987 734.014 62.2107C734.014 63.1227 734.224 63.9507 734.644 64.6947C735.076 65.4267 735.67 66.0027 736.426 66.4227C737.182 66.8427 738.028 67.0527 738.964 67.0527C740.368 67.0527 741.55 66.5487 742.51 65.5407L743.68 66.6747C743.104 67.3227 742.402 67.8147 741.574 68.1507C740.758 68.4867 739.858 68.6547 738.874 68.6547ZM746.247 55.9107H748.047V66.9447H754.869V68.5107H746.247V55.9107ZM756.935 55.9107H758.735V68.5107H756.935V55.9107ZM771.651 66.9447V68.5107H762.507V55.9107H771.399V57.4767H764.307V61.3467H770.625V62.8767H764.307V66.9447H771.651ZM785.402 55.9107V68.5107H783.926L776.366 59.1147V68.5107H774.566V55.9107H776.042L783.602 65.3067V55.9107H785.402ZM791.675 57.4767H787.355V55.9107H797.777V57.4767H793.457V68.5107H791.675V57.4767ZM803.251 68.6547C802.303 68.6547 801.385 68.5107 800.497 68.2227C799.621 67.9227 798.931 67.5387 798.427 67.0707L799.093 65.6667C799.573 66.0987 800.185 66.4527 800.929 66.7287C801.685 66.9927 802.459 67.1247 803.251 67.1247C804.295 67.1247 805.075 66.9507 805.591 66.6027C806.107 66.2427 806.365 65.7687 806.365 65.1807C806.365 64.7487 806.221 64.4007 805.933 64.1367C805.657 63.8607 805.309 63.6507 804.889 63.5067C804.481 63.3627 803.899 63.2007 803.143 63.0207C802.195 62.7927 801.427 62.5647 800.839 62.3367C800.263 62.1087 799.765 61.7607 799.345 61.2927C798.937 60.8127 798.733 60.1707 798.733 59.3667C798.733 58.6947 798.907 58.0887 799.255 57.5487C799.615 57.0087 800.155 56.5767 800.875 56.2527C801.595 55.9287 802.489 55.7667 803.557 55.7667C804.301 55.7667 805.033 55.8627 805.753 56.0547C806.473 56.2467 807.091 56.5227 807.607 56.8827L807.013 58.3227C806.485 57.9867 805.921 57.7347 805.321 57.5667C804.721 57.3867 804.133 57.2967 803.557 57.2967C802.537 57.2967 801.769 57.4827 801.253 57.8547C800.749 58.2267 800.497 58.7067 800.497 59.2947C800.497 59.7267 800.641 60.0807 800.929 60.3567C801.217 60.6207 801.571 60.8307 801.991 60.9867C802.423 61.1307 803.005 61.2867 803.737 61.4547C804.685 61.6827 805.447 61.9107 806.023 62.1387C806.599 62.3667 807.091 62.7147 807.499 63.1827C807.919 63.6507 808.129 64.2807 808.129 65.0727C808.129 65.7327 807.949 66.3387 807.589 66.8907C807.229 67.4307 806.683 67.8627 805.951 68.1867C805.219 68.4987 804.319 68.6547 803.251 68.6547ZM742.384 88.9447V90.5107H733.24V77.9107H742.132V79.4767H735.04V83.3467H741.358V84.8767H735.04V88.9447H742.384ZM756.066 77.9107L750.54 90.5107H748.758L743.214 77.9107H745.158L749.694 88.2607L754.266 77.9107H756.066ZM766.817 88.9447V90.5107H757.673V77.9107H766.565V79.4767H759.473V83.3467H765.791V84.8767H759.473V88.9447H766.817ZM778.156 90.5107L775.438 86.6407C775.102 86.6647 774.838 86.6767 774.646 86.6767H771.532V90.5107H769.732V77.9107H774.646C776.278 77.9107 777.562 78.3007 778.498 79.0807C779.434 79.8607 779.902 80.9347 779.902 82.3027C779.902 83.2747 779.662 84.1027 779.182 84.7867C778.702 85.4707 778.018 85.9687 777.13 86.2807L780.118 90.5107H778.156ZM774.592 85.1467C775.732 85.1467 776.602 84.9007 777.202 84.4087C777.802 83.9167 778.102 83.2147 778.102 82.3027C778.102 81.3907 777.802 80.6947 777.202 80.2147C776.602 79.7227 775.732 79.4767 774.592 79.4767H771.532V85.1467H774.592ZM787.458 86.1547V90.5107H785.676V86.1187L780.672 77.9107H782.598L786.63 84.5527L790.68 77.9107H792.462L787.458 86.1547ZM803.946 86.1547V90.5107H802.164V86.1187L797.16 77.9107H799.086L803.118 84.5527L807.168 77.9107H808.95L803.946 86.1547ZM819.71 88.9447V90.5107H810.566V77.9107H819.458V79.4767H812.366V83.3467H818.684V84.8767H812.366V88.9447H819.71ZM830.652 87.3607H823.956L822.57 90.5107H820.716L826.422 77.9107H828.204L833.928 90.5107H832.038L830.652 87.3607ZM830.022 85.9207L827.304 79.7467L824.586 85.9207H830.022ZM844.232 90.5107L841.514 86.6407C841.178 86.6647 840.914 86.6767 840.722 86.6767H837.608V90.5107H835.808V77.9107H840.722C842.354 77.9107 843.638 78.3007 844.574 79.0807C845.51 79.8607 845.978 80.9347 845.978 82.3027C845.978 83.2747 845.738 84.1027 845.258 84.7867C844.778 85.4707 844.094 85.9687 843.206 86.2807L846.194 90.5107H844.232ZM840.668 85.1467C841.808 85.1467 842.678 84.9007 843.278 84.4087C843.878 83.9167 844.178 83.2147 844.178 82.3027C844.178 81.3907 843.878 80.6947 843.278 80.2147C842.678 79.7227 841.808 79.4767 840.668 79.4767H837.608V85.1467H840.668Z" fill="white"/>
<path d="M941.818 151.546H943.618V164.146H941.818V151.546ZM958.226 151.546V164.146H956.75L949.19 154.75V164.146H947.39V151.546H948.866L956.426 160.942V151.546H958.226ZM964.499 153.112H960.179V151.546H970.601V153.112H966.281V164.146H964.499V153.112ZM981.706 162.58V164.146H972.562V151.546H981.454V153.112H974.362V156.982H980.68V158.512H974.362V162.58H981.706ZM993.044 164.146L990.326 160.276C989.99 160.3 989.726 160.312 989.534 160.312H986.42V164.146H984.62V151.546H989.534C991.166 151.546 992.45 151.936 993.386 152.716C994.322 153.496 994.79 154.57 994.79 155.938C994.79 156.91 994.55 157.738 994.07 158.422C993.59 159.106 992.906 159.604 992.018 159.916L995.006 164.146H993.044ZM989.48 158.782C990.62 158.782 991.49 158.536 992.09 158.044C992.69 157.552 992.99 156.85 992.99 155.938C992.99 155.026 992.69 154.33 992.09 153.85C991.49 153.358 990.62 153.112 989.48 153.112H986.42V158.782H989.48ZM1008.53 151.546V164.146H1007.06L999.499 154.75V164.146H997.699V151.546H999.175L1006.73 160.942V151.546H1008.53ZM1020.33 160.996H1013.64L1012.25 164.146H1010.4L1016.1 151.546H1017.89L1023.61 164.146H1021.72L1020.33 160.996ZM1019.7 159.556L1016.99 153.382L1014.27 159.556H1019.7ZM1027.36 153.112H1023.04V151.546H1033.46V153.112H1029.14V164.146H1027.36V153.112ZM1035.42 151.546H1037.22V164.146H1035.42V151.546ZM1046.68 164.29C1045.41 164.29 1044.26 164.014 1043.24 163.462C1042.22 162.898 1041.42 162.124 1040.83 161.14C1040.26 160.156 1039.97 159.058 1039.97 157.846C1039.97 156.634 1040.26 155.536 1040.83 154.552C1041.42 153.568 1042.22 152.8 1043.24 152.248C1044.26 151.684 1045.41 151.402 1046.68 151.402C1047.94 151.402 1049.08 151.684 1050.1 152.248C1051.12 152.8 1051.92 153.568 1052.5 154.552C1053.07 155.524 1053.36 156.622 1053.36 157.846C1053.36 159.07 1053.07 160.174 1052.5 161.158C1051.92 162.13 1051.12 162.898 1050.1 163.462C1049.08 164.014 1047.94 164.29 1046.68 164.29ZM1046.68 162.688C1047.61 162.688 1048.43 162.478 1049.17 162.058C1049.91 161.638 1050.49 161.062 1050.91 160.33C1051.34 159.586 1051.56 158.758 1051.56 157.846C1051.56 156.934 1051.34 156.112 1050.91 155.38C1050.49 154.636 1049.91 154.054 1049.17 153.634C1048.43 153.214 1047.61 153.004 1046.68 153.004C1045.76 153.004 1044.92 153.214 1044.16 153.634C1043.42 154.054 1042.83 154.636 1042.4 155.38C1041.98 156.112 1041.77 156.934 1041.77 157.846C1041.77 158.758 1041.98 159.586 1042.4 160.33C1042.83 161.062 1043.42 161.638 1044.16 162.058C1044.92 162.478 1045.76 162.688 1046.68 162.688ZM1066.95 151.546V164.146H1065.47L1057.91 154.75V164.146H1056.11V151.546H1057.59L1065.15 160.942V151.546H1066.95ZM1078.75 160.996H1072.05L1070.66 164.146H1068.81L1074.52 151.546H1076.3L1082.02 164.146H1080.13L1078.75 160.996ZM1078.12 159.556L1075.4 153.382L1072.68 159.556H1078.12ZM1083.9 151.546H1085.7V162.58H1092.52V164.146H1083.9V151.546ZM946.732 173.546C948.364 173.546 949.648 173.936 950.584 174.716C951.52 175.496 951.988 176.57 951.988 177.938C951.988 179.306 951.52 180.38 950.584 181.16C949.648 181.94 948.364 182.33 946.732 182.33H943.618V186.146H941.818V173.546H946.732ZM946.678 180.764C947.818 180.764 948.688 180.524 949.288 180.044C949.888 179.552 950.188 178.85 950.188 177.938C950.188 177.026 949.888 176.33 949.288 175.85C948.688 175.358 947.818 175.112 946.678 175.112H943.618V180.764H946.678ZM962.027 182.996H955.331L953.945 186.146H952.091L957.797 173.546H959.579L965.303 186.146H963.413L962.027 182.996ZM961.397 181.556L958.679 175.382L955.961 181.556H961.397ZM975.607 186.146L972.889 182.276C972.553 182.3 972.289 182.312 972.097 182.312H968.983V186.146H967.183V173.546H972.097C973.729 173.546 975.013 173.936 975.949 174.716C976.885 175.496 977.353 176.57 977.353 177.938C977.353 178.91 977.113 179.738 976.633 180.422C976.153 181.106 975.469 181.604 974.581 181.916L977.569 186.146H975.607ZM972.043 180.782C973.183 180.782 974.053 180.536 974.653 180.044C975.253 179.552 975.553 178.85 975.553 177.938C975.553 177.026 975.253 176.33 974.653 175.85C974.053 175.358 973.183 175.112 972.043 175.112H968.983V180.782H972.043ZM982.587 175.112H978.267V173.546H988.689V175.112H984.369V186.146H982.587V175.112ZM1001.49 173.546V186.146H1000.01L992.45 176.75V186.146H990.65V173.546H992.126L999.686 182.942V173.546H1001.49ZM1014.4 184.58V186.146H1005.26V173.546H1014.15V175.112H1007.06V178.982H1013.38V180.512H1007.06V184.58H1014.4ZM1025.74 186.146L1023.02 182.276C1022.69 182.3 1022.42 182.312 1022.23 182.312H1019.12V186.146H1017.32V173.546H1022.23C1023.86 173.546 1025.15 173.936 1026.08 174.716C1027.02 175.496 1027.49 176.57 1027.49 177.938C1027.49 178.91 1027.25 179.738 1026.77 180.422C1026.29 181.106 1025.6 181.604 1024.71 181.916L1027.7 186.146H1025.74ZM1022.18 180.782C1023.32 180.782 1024.19 180.536 1024.79 180.044C1025.39 179.552 1025.69 178.85 1025.69 177.938C1025.69 177.026 1025.39 176.33 1024.79 175.85C1024.19 175.358 1023.32 175.112 1022.18 175.112H1019.12V180.782H1022.18ZM1034.07 186.29C1033.12 186.29 1032.2 186.146 1031.31 185.858C1030.44 185.558 1029.75 185.174 1029.24 184.706L1029.91 183.302C1030.39 183.734 1031 184.088 1031.74 184.364C1032.5 184.628 1033.27 184.76 1034.07 184.76C1035.11 184.76 1035.89 184.586 1036.41 184.238C1036.92 183.878 1037.18 183.404 1037.18 182.816C1037.18 182.384 1037.04 182.036 1036.75 181.772C1036.47 181.496 1036.12 181.286 1035.7 181.142C1035.3 180.998 1034.71 180.836 1033.96 180.656C1033.01 180.428 1032.24 180.2 1031.65 179.972C1031.08 179.744 1030.58 179.396 1030.16 178.928C1029.75 178.448 1029.55 177.806 1029.55 177.002C1029.55 176.33 1029.72 175.724 1030.07 175.184C1030.43 174.644 1030.97 174.212 1031.69 173.888C1032.41 173.564 1033.3 173.402 1034.37 173.402C1035.12 173.402 1035.85 173.498 1036.57 173.69C1037.29 173.882 1037.91 174.158 1038.42 174.518L1037.83 175.958C1037.3 175.622 1036.74 175.37 1036.14 175.202C1035.54 175.022 1034.95 174.932 1034.37 174.932C1033.35 174.932 1032.58 175.118 1032.07 175.49C1031.56 175.862 1031.31 176.342 1031.31 176.93C1031.31 177.362 1031.46 177.716 1031.74 177.992C1032.03 178.256 1032.39 178.466 1032.81 178.622C1033.24 178.766 1033.82 178.922 1034.55 179.09C1035.5 179.318 1036.26 179.546 1036.84 179.774C1037.41 180.002 1037.91 180.35 1038.31 180.818C1038.73 181.286 1038.94 181.916 1038.94 182.708C1038.94 183.368 1038.76 183.974 1038.4 184.526C1038.04 185.066 1037.5 185.498 1036.77 185.822C1036.03 186.134 1035.13 186.29 1034.07 186.29Z" fill="white"/>
<path d="M236.731 146.637V191.437H226.363V154.957H217.403V146.637H236.731ZM263.714 192.205C260.002 192.205 256.695 191.287 253.794 189.453C250.892 187.618 248.61 184.973 246.946 181.517C245.324 178.018 244.514 173.858 244.514 169.037C244.514 164.215 245.324 160.077 246.946 156.621C248.61 153.122 250.892 150.455 253.794 148.621C256.695 146.786 260.002 145.869 263.714 145.869C267.426 145.869 270.732 146.786 273.634 148.621C276.535 150.455 278.796 153.122 280.418 156.621C282.082 160.077 282.914 164.215 282.914 169.037C282.914 173.858 282.082 178.018 280.418 181.517C278.796 184.973 276.535 187.618 273.634 189.453C270.732 191.287 267.426 192.205 263.714 192.205ZM263.714 183.437C266.444 183.437 268.578 182.263 270.114 179.917C271.692 177.57 272.482 173.943 272.482 169.037C272.482 164.13 271.692 160.503 270.114 158.157C268.578 155.81 266.444 154.637 263.714 154.637C261.026 154.637 258.892 155.81 257.314 158.157C255.778 160.503 255.01 164.13 255.01 169.037C255.01 173.943 255.778 177.57 257.314 179.917C258.892 182.263 261.026 183.437 263.714 183.437ZM320.137 172.941H309.001V183.821H300.745V172.941H289.673V165.133H300.745V154.253H309.001V165.133H320.137V172.941Z" fill="white"/>
<path d="M514.723 48.6561V93.4561H504.355V56.9761H495.395V48.6561H514.723ZM537.866 65.4881C544.18 65.4881 548.831 66.7467 551.818 69.2641C554.847 71.7814 556.362 75.1521 556.362 79.3761C556.362 82.1067 555.679 84.6027 554.314 86.8641C552.948 89.0827 550.858 90.8747 548.042 92.2401C545.268 93.5627 541.834 94.2241 537.738 94.2241C534.58 94.2241 531.466 93.8187 528.394 93.0081C525.364 92.1547 522.783 90.9601 520.65 89.4241L524.746 81.4881C526.452 82.7681 528.415 83.7707 530.634 84.4961C532.852 85.1787 535.135 85.5201 537.482 85.5201C540.084 85.5201 542.132 85.0081 543.626 83.9841C545.119 82.9601 545.866 81.5307 545.866 79.6961C545.866 77.7761 545.076 76.3254 543.498 75.3441C541.962 74.3627 539.274 73.8721 535.434 73.8721H523.978L526.282 48.6561H553.61V56.9761H534.922L534.218 65.4881H537.866Z" fill="white"/>
<path d="M774.501 149.054V193.854H764.133V157.374H755.173V149.054H774.501ZM801.483 194.622C797.771 194.622 794.464 193.705 791.563 191.87C788.662 190.036 786.379 187.39 784.715 183.934C783.094 180.436 782.283 176.276 782.283 171.454C782.283 166.633 783.094 162.494 784.715 159.038C786.379 155.54 788.662 152.873 791.563 151.038C794.464 149.204 797.771 148.286 801.483 148.286C805.195 148.286 808.502 149.204 811.403 151.038C814.304 152.873 816.566 155.54 818.187 159.038C819.851 162.494 820.683 166.633 820.683 171.454C820.683 176.276 819.851 180.436 818.187 183.934C816.566 187.39 814.304 190.036 811.403 191.87C808.502 193.705 805.195 194.622 801.483 194.622ZM801.483 185.854C804.214 185.854 806.347 184.681 807.883 182.334C809.462 179.988 810.251 176.361 810.251 171.454C810.251 166.548 809.462 162.921 807.883 160.574C806.347 158.228 804.214 157.054 801.483 157.054C798.795 157.054 796.662 158.228 795.083 160.574C793.547 162.921 792.779 166.548 792.779 171.454C792.779 176.361 793.547 179.988 795.083 182.334C796.662 184.681 798.795 185.854 801.483 185.854Z" fill="white"/>
<path d="M1003.82 59.3953C1010.14 59.3953 1014.79 60.6539 1017.78 63.1713C1020.81 65.6886 1022.32 69.0593 1022.32 73.2833C1022.32 76.0139 1021.64 78.5099 1020.27 80.7713C1018.91 82.9899 1016.82 84.7819 1014 86.1473C1011.23 87.4699 1007.79 88.1313 1003.7 88.1313C1000.54 88.1313 997.425 87.7259 994.353 86.9153C991.323 86.0619 988.742 84.8673 986.609 83.3313L990.705 75.3953C992.411 76.6753 994.374 77.6779 996.593 78.4033C998.811 79.0859 1001.09 79.4273 1003.44 79.4273C1006.04 79.4273 1008.09 78.9153 1009.58 77.8913C1011.08 76.8673 1011.82 75.4379 1011.82 73.6033C1011.82 71.6833 1011.04 70.2326 1009.46 69.2513C1007.92 68.2699 1005.23 67.7793 1001.39 67.7793H989.937L992.241 42.5633H1019.57V50.8833H1000.88L1000.18 59.3953H1003.82Z" fill="white"/>
<circle cx="270.487" cy="168.436" r="64.5726" stroke="white" stroke-dasharray="5 5"/>
<circle cx="526.51" cy="66.1654" r="64.5726" stroke="white" stroke-dasharray="5 5"/>
<circle cx="781.924" cy="173.927" r="64.5726" stroke="white" stroke-dasharray="5 5"/>
<circle cx="1005" cy="65.0726" r="64.5726" stroke="white" stroke-dasharray="5 5"/>
</svg>
