<svg width="74" height="47" viewBox="0 0 74 47" fill="none" xmlns="http://www.w3.org/2000/svg">
<path d="M6.12513 44.06C5.50113 44.06 4.90913 43.956 4.34913 43.748C3.79713 43.532 3.36913 43.256 3.06513 42.92L3.34113 42.464C3.62913 42.76 4.02113 43.012 4.51713 43.22C5.02113 43.42 5.55313 43.52 6.11313 43.52C6.67313 43.52 7.12913 43.448 7.48113 43.304C7.84113 43.152 8.10513 42.952 8.27313 42.704C8.44913 42.456 8.53713 42.18 8.53713 41.876C8.53713 41.516 8.44113 41.228 8.24913 41.012C8.05713 40.796 7.80513 40.624 7.49313 40.496C7.18113 40.368 6.84113 40.26 6.47313 40.172C6.10513 40.084 5.73313 39.992 5.35713 39.896C4.98113 39.792 4.63713 39.66 4.32513 39.5C4.01313 39.34 3.76113 39.124 3.56913 38.852C3.38513 38.572 3.29313 38.212 3.29313 37.772C3.29313 37.372 3.39713 37.004 3.60513 36.668C3.81313 36.332 4.13713 36.06 4.57713 35.852C5.01713 35.644 5.58113 35.54 6.26913 35.54C6.73313 35.54 7.18913 35.608 7.63713 35.744C8.09313 35.88 8.48113 36.064 8.80113 36.296L8.57313 36.788C8.22113 36.548 7.84113 36.372 7.43313 36.26C7.03313 36.14 6.64513 36.08 6.26913 36.08C5.73313 36.08 5.28913 36.156 4.93713 36.308C4.58513 36.46 4.32513 36.664 4.15713 36.92C3.98913 37.168 3.90513 37.448 3.90513 37.76C3.90513 38.12 3.99713 38.408 4.18113 38.624C4.37313 38.84 4.62513 39.012 4.93713 39.14C5.24913 39.268 5.59313 39.376 5.96913 39.464C6.34513 39.552 6.71713 39.648 7.08513 39.752C7.45313 39.848 7.79313 39.976 8.10513 40.136C8.41713 40.296 8.66913 40.512 8.86113 40.784C9.05313 41.056 9.14913 41.408 9.14913 41.84C9.14913 42.232 9.04113 42.6 8.82513 42.944C8.60913 43.28 8.27713 43.552 7.82913 43.76C7.38913 43.96 6.82113 44.06 6.12513 44.06ZM13.5216 44.048C12.9136 44.048 12.3696 43.912 11.8896 43.64C11.4176 43.368 11.0416 42.992 10.7616 42.512C10.4896 42.032 10.3536 41.484 10.3536 40.868C10.3536 40.244 10.4896 39.692 10.7616 39.212C11.0416 38.732 11.4176 38.36 11.8896 38.096C12.3696 37.824 12.9136 37.688 13.5216 37.688C14.0256 37.688 14.4816 37.784 14.8896 37.976C15.3056 38.168 15.6416 38.456 15.8976 38.84L15.4536 39.164C15.2296 38.844 14.9496 38.608 14.6136 38.456C14.2776 38.304 13.9136 38.228 13.5216 38.228C13.0336 38.228 12.5936 38.34 12.2016 38.564C11.8176 38.78 11.5136 39.088 11.2896 39.488C11.0736 39.88 10.9656 40.34 10.9656 40.868C10.9656 41.396 11.0736 41.86 11.2896 42.26C11.5136 42.652 11.8176 42.96 12.2016 43.184C12.5936 43.4 13.0336 43.508 13.5216 43.508C13.9136 43.508 14.2776 43.432 14.6136 43.28C14.9496 43.128 15.2296 42.892 15.4536 42.572L15.8976 42.896C15.6416 43.28 15.3056 43.568 14.8896 43.76C14.4816 43.952 14.0256 44.048 13.5216 44.048ZM17.6939 44V37.736H18.2699V39.452L18.2099 39.26C18.3859 38.756 18.6819 38.368 19.0979 38.096C19.5139 37.824 20.0339 37.688 20.6579 37.688V38.276C20.6339 38.276 20.6099 38.276 20.5859 38.276C20.5619 38.268 20.5379 38.264 20.5139 38.264C19.8179 38.264 19.2739 38.484 18.8819 38.924C18.4899 39.356 18.2939 39.96 18.2939 40.736V44H17.6939ZM24.7005 44.048C24.1005 44.048 23.5645 43.912 23.0925 43.64C22.6285 43.368 22.2565 42.992 21.9765 42.512C21.7045 42.032 21.5685 41.484 21.5685 40.868C21.5685 40.244 21.7045 39.696 21.9765 39.224C22.2565 38.744 22.6285 38.368 23.0925 38.096C23.5645 37.824 24.1005 37.688 24.7005 37.688C25.3005 37.688 25.8365 37.824 26.3085 38.096C26.7805 38.368 27.1525 38.744 27.4245 39.224C27.6965 39.696 27.8325 40.244 27.8325 40.868C27.8325 41.484 27.6965 42.032 27.4245 42.512C27.1525 42.992 26.7805 43.368 26.3085 43.64C25.8365 43.912 25.3005 44.048 24.7005 44.048ZM24.7005 43.508C25.1805 43.508 25.6125 43.4 25.9965 43.184C26.3805 42.96 26.6805 42.648 26.8965 42.248C27.1125 41.848 27.2205 41.388 27.2205 40.868C27.2205 40.34 27.1125 39.88 26.8965 39.488C26.6805 39.088 26.3805 38.78 25.9965 38.564C25.6125 38.34 25.1805 38.228 24.7005 38.228C24.2205 38.228 23.7885 38.34 23.4045 38.564C23.0285 38.78 22.7285 39.088 22.5045 39.488C22.2885 39.88 22.1805 40.34 22.1805 40.868C22.1805 41.388 22.2885 41.848 22.5045 42.248C22.7285 42.648 23.0285 42.96 23.4045 43.184C23.7885 43.4 24.2205 43.508 24.7005 43.508ZM29.6939 44V35.096H30.2939V44H29.6939ZM32.8228 44V35.096H33.4228V44H32.8228ZM41.4457 44.048C40.8617 44.048 40.3337 43.916 39.8617 43.652C39.3977 43.38 39.0297 43.004 38.7577 42.524C38.4857 42.044 38.3497 41.492 38.3497 40.868C38.3497 40.236 38.4857 39.684 38.7577 39.212C39.0297 38.732 39.3977 38.36 39.8617 38.096C40.3337 37.824 40.8617 37.688 41.4457 37.688C41.9977 37.688 42.4937 37.816 42.9337 38.072C43.3817 38.328 43.7337 38.692 43.9897 39.164C44.2537 39.636 44.3857 40.204 44.3857 40.868C44.3857 41.516 44.2577 42.08 44.0017 42.56C43.7457 43.04 43.3937 43.408 42.9457 43.664C42.5057 43.92 42.0057 44.048 41.4457 44.048ZM41.4817 43.508C41.9617 43.508 42.3897 43.4 42.7657 43.184C43.1497 42.96 43.4497 42.648 43.6657 42.248C43.8897 41.848 44.0017 41.388 44.0017 40.868C44.0017 40.34 43.8897 39.88 43.6657 39.488C43.4497 39.088 43.1497 38.78 42.7657 38.564C42.3897 38.34 41.9617 38.228 41.4817 38.228C41.0017 38.228 40.5697 38.34 40.1857 38.564C39.8097 38.78 39.5097 39.088 39.2857 39.488C39.0697 39.88 38.9617 40.34 38.9617 40.868C38.9617 41.388 39.0697 41.848 39.2857 42.248C39.5097 42.648 39.8097 42.96 40.1857 43.184C40.5697 43.4 41.0017 43.508 41.4817 43.508ZM44.0137 44V41.948L44.1217 40.856L44.0017 39.764V35.096H44.6017V44H44.0137ZM49.5794 44.048C48.9794 44.048 48.4434 43.912 47.9714 43.64C47.5074 43.368 47.1354 42.992 46.8554 42.512C46.5834 42.032 46.4474 41.484 46.4474 40.868C46.4474 40.244 46.5834 39.696 46.8554 39.224C47.1354 38.744 47.5074 38.368 47.9714 38.096C48.4434 37.824 48.9794 37.688 49.5794 37.688C50.1794 37.688 50.7154 37.824 51.1874 38.096C51.6594 38.368 52.0314 38.744 52.3034 39.224C52.5754 39.696 52.7114 40.244 52.7114 40.868C52.7114 41.484 52.5754 42.032 52.3034 42.512C52.0314 42.992 51.6594 43.368 51.1874 43.64C50.7154 43.912 50.1794 44.048 49.5794 44.048ZM49.5794 43.508C50.0594 43.508 50.4914 43.4 50.8754 43.184C51.2594 42.96 51.5594 42.648 51.7754 42.248C51.9914 41.848 52.0994 41.388 52.0994 40.868C52.0994 40.34 51.9914 39.88 51.7754 39.488C51.5594 39.088 51.2594 38.78 50.8754 38.564C50.4914 38.34 50.0594 38.228 49.5794 38.228C49.0994 38.228 48.6674 38.34 48.2834 38.564C47.9074 38.78 47.6074 39.088 47.3834 39.488C47.1674 39.88 47.0594 40.34 47.0594 40.868C47.0594 41.388 47.1674 41.848 47.3834 42.248C47.6074 42.648 47.9074 42.96 48.2834 43.184C48.6674 43.4 49.0994 43.508 49.5794 43.508ZM55.621 44L53.245 37.736H53.821L56.029 43.664H55.777L58.045 37.736H58.561L60.817 43.664H60.553L62.797 37.736H63.349L60.973 44H60.409L58.201 38.312H58.393L56.173 44H55.621ZM67.8047 37.688C68.3167 37.688 68.7607 37.788 69.1367 37.988C69.5207 38.18 69.8167 38.476 70.0247 38.876C70.2407 39.268 70.3487 39.756 70.3487 40.34V44H69.7487V40.388C69.7487 39.684 69.5687 39.148 69.2087 38.78C68.8567 38.412 68.3607 38.228 67.7207 38.228C67.2327 38.228 66.8087 38.328 66.4487 38.528C66.0887 38.728 65.8127 39.008 65.6207 39.368C65.4367 39.728 65.3447 40.16 65.3447 40.664V44H64.7447V37.736H65.3207V39.476L65.2367 39.284C65.4287 38.788 65.7447 38.4 66.1847 38.12C66.6247 37.832 67.1647 37.688 67.8047 37.688Z" fill="black"/>
<path d="M15 1L37 23L59 1" stroke="black" stroke-width="2" stroke-linecap="round" stroke-linejoin="round"/>
</svg>
